<?xml version="1.0" encoding="UTF-8" standalone="no"?>
<!-- Creator: CorelDRAW X7 -->

<svg
   xmlns:dc="http://purl.org/dc/elements/1.1/"
   xmlns:cc="http://creativecommons.org/ns#"
   xmlns:rdf="http://www.w3.org/1999/02/22-rdf-syntax-ns#"
   xmlns:svg="http://www.w3.org/2000/svg"
   xmlns="http://www.w3.org/2000/svg"
   xmlns:sodipodi="http://sodipodi.sourceforge.net/DTD/sodipodi-0.dtd"
   xmlns:inkscape="http://www.inkscape.org/namespaces/inkscape"
   xml:space="preserve"
   width="98.7006mm"
   height="45.3295mm"
   version="1.1"
   style="shape-rendering:geometricPrecision; text-rendering:geometricPrecision; image-rendering:optimizeQuality; fill-rule:evenodd; clip-rule:evenodd"
   viewBox="0 0 9870 4533"
   id="svg17"
   sodipodi:docname="The Tibetan alphabet.svg"
   inkscape:version="0.92.3 (2405546, 2018-03-11)"><title
   id="title37">The Tibetan alphabet</title><metadata
   id="metadata21"><rdf:RDF><cc:Work
       rdf:about=""><dc:format>image/svg+xml</dc:format><dc:type
         rdf:resource="http://purl.org/dc/dcmitype/StillImage" /><dc:title>The Tibetan alphabet</dc:title><dc:date>26 September 2018</dc:date><dc:creator><cc:Agent><dc:title>Christopher J. Fynn</dc:title></cc:Agent></dc:creator><dc:rights><cc:Agent><dc:title>Christopher J. Fynn</dc:title></cc:Agent></dc:rights><dc:publisher><cc:Agent><dc:title>Christopher J. Fynn</dc:title></cc:Agent></dc:publisher><dc:source>Christopher J. Fynn</dc:source><dc:description>The Tibetan alphabet</dc:description><dc:contributor><cc:Agent><dc:title>Christopher J. Fynn</dc:title></cc:Agent></dc:contributor><cc:license
         rdf:resource="http://creativecommons.org/licenses/by-sa/4.0/" /></cc:Work><cc:License
       rdf:about="http://creativecommons.org/licenses/by-sa/4.0/"><cc:permits
         rdf:resource="http://creativecommons.org/ns#Reproduction" /><cc:permits
         rdf:resource="http://creativecommons.org/ns#Distribution" /><cc:requires
         rdf:resource="http://creativecommons.org/ns#Notice" /><cc:requires
         rdf:resource="http://creativecommons.org/ns#Attribution" /><cc:permits
         rdf:resource="http://creativecommons.org/ns#DerivativeWorks" /><cc:requires
         rdf:resource="http://creativecommons.org/ns#ShareAlike" /></cc:License></rdf:RDF></metadata><sodipodi:namedview
   pagecolor="#ffffff"
   bordercolor="#666666"
   borderopacity="1"
   objecttolerance="10"
   gridtolerance="10"
   guidetolerance="10"
   inkscape:pageopacity="0"
   inkscape:pageshadow="2"
   inkscape:window-width="1920"
   inkscape:window-height="1001"
   id="namedview19"
   showgrid="false"
   inkscape:zoom="1.0695857"
   inkscape:cx="186.52082"
   inkscape:cy="99.686166"
   inkscape:window-x="-9"
   inkscape:window-y="-9"
   inkscape:window-maximized="1"
   inkscape:current-layer="svg17" />
 <defs
   id="defs4"><style
     type="text/css"
     id="style2">
   <![CDATA[
    .fil1 {fill:none}
    .fil0 {fill:#373435}
   ]]>
  </style></defs>
 <g
   id="g35"><path
     style="fill:#373435"
     inkscape:connector-curvature="0"
     id="path7"
     d="m 986,438.8345 c -3,11 -6,23 -9,36 -4,13 -7,26 -10,39 -3,13 -5,25 -8,37 -2,11 -3,20 -3,27 v 759.0001 c 0,5 -2,9 -5,11 -3,2 -7,3 -12,3 -3,0 -6,-1 -10,-3 -3,-2 -6,-6 -6,-11 L 882,586.8345 c 0,-8 -1,-17 -2,-25 -2,-9 -4,-16 -6,-23 -2,-6 -5,-12 -7,-15 -3,-4 -6,-6 -9,-6 h -78 c -1,19 -2,34 -2,46 0,11 -1,21 -1,29 0,8 -1,15 -1,21 0,7 -1,14 -1,23 -2,21 -4,46 -4,75 -1,29 -2,56 -3,82 -1,27 -4,49 -7,67 -3,18 -9,27 -16,27 -3,0 -5,-8 -8,-25 -2,-17 -5,-38 -8,-63 -2,-25 -5,-52 -7,-80 -2,-28 -4,-54 -6,-76 0,-9 -1,-20 -3,-34 -2,-14 -4,-28 -6,-42 -2,-13 -4,-25 -7,-35 -3,-10 -6,-15 -8,-15 h -39 c -6,0 -11,4 -14,11 -4,7 -6,14 -7,19 -6,22 -14,45 -24,69 -11,24 -23,46 -36,67 -14,20 -29,36 -45,49 -17,13 -34,20 -52,20 -7,0 -10,-3 -10,-9 0,-1 1,-3 3,-5 2,-2 5,-3 7,-5 9,-4 19,-16 30,-35 11,-18 22,-39 31,-62 9,-22 17,-45 24,-67 6,-22 9,-39 9,-52 h -35 c -10,0 -17,-1 -19,-3 -3,-1 -5,-5 -5,-12 0,-2 2,-6 4,-12 3,-6 5,-13 9,-19 3,-7 6,-14 10,-20 3,-6 6,-11 7,-13 z m 119,121 c -5,0 -8,-1 -10,-4 -2,-3 -5,-8 -8,-15 -4,-7 -7,-14 -12,-21 -4,-8 -8,-15 -11,-22 -4,-6 -7,-13 -10,-19 -2,-6 -4,-11 -4,-14 0,-6 3,-12 7,-18 5,-6 12,-8 22,-8 h 51 c 10,0 18,2 22,8 5,6 7,12 7,18 0,3 -1,8 -4,14 -2,6 -6,13 -9,19 -4,7 -8,14 -12,22 -4,7 -8,14 -11,21 -3,7 -6,12 -8,15 -2,3 -6,4 -10,4 z m 579,-121 c -2,10 -4,21 -8,33 -3,11 -5,22 -8,33 -2,11 -4,22 -6,31 -2,10 -3,19 -3,26 v 311 c 0,8 -5,13 -13,13 -4,0 -9,-3 -16,-10 -7,-6 -16,-14 -26,-23 -10,-9 -21,-19 -33,-30 -12,-11 -25,-21 -38,-30 -13,-9 -27,-17 -40,-23 -14,-7 -28,-10 -41,-10 -8,0 -16,1 -25,2 -9,1 -18,2 -27,4 -9,2 -17,4 -24,6 -7,3 -13,5 -17,8 0,-2 1,-7 2,-15 1,-8 2,-16 5,-26 2,-9 5,-18 10,-26 4,-9 9,-15 16,-18 0,-20 2,-39 5,-57 4,-19 9,-36 15,-52 5,-16 11,-29 17,-42 7,-12 12,-21 17,-27 h -124 c -3,0 -7,2 -11,5 -5,3 -9,7 -13,12 -4,5 -8,10 -11,17 -3,7 -5,14 -5,21 l -27,348 c 0,4 -1,8 -3,10 -2,3 -4,5 -7,5 -13,0 -19,-5 -19,-15 l -16,-373 c 0,-4 3,-12 10,-23 6,-12 14,-24 22,-37 9,-12 17,-24 25,-34 8,-10 14,-14 17,-14 z m -149,78 c -10,0 -21,6 -33,19 -13,12 -24,27 -34,45 -11,17 -19,36 -26,55 -7,19 -11,36 -11,49 8,-1 15,-2 22,-3 7,0 14,0 20,0 15,0 29,4 44,12 14,9 27,19 40,31 13,13 24,25 35,39 11,13 20,25 29,34 l -18,-182 c -1,-20 -3,-36 -6,-48 -3,-13 -6,-23 -9,-31 -4,-7 -7,-12 -12,-15 -4,-3 -8,-4 -12,-5 z m 273,43 c -5,0 -8,-1 -10,-4 -3,-3 -5,-8 -9,-15 -3,-7 -7,-14 -11,-21 -4,-8 -8,-15 -11,-22 -4,-6 -7,-13 -10,-19 -3,-6 -4,-11 -4,-14 0,-6 2,-12 7,-18 5,-6 12,-8 22,-8 h 51 c 10,0 17,2 22,8 5,6 7,12 7,18 0,3 -1,8 -4,14 -3,6 -6,13 -10,19 -3,7 -7,14 -11,22 -4,7 -8,14 -11,21 -4,7 -6,12 -9,15 -2,3 -5,4 -9,4 z m 255,-42 c -6,1 -13,6 -21,14 -9,9 -17,20 -25,34 -8,14 -15,30 -20,48 -6,19 -8,38 -8,59 17,0 33,2 48,7 14,4 28,12 41,21 12,10 25,23 38,38 13,16 26,34 41,56 -3,-34 -7,-65 -10,-95 -4,-29 -7,-61 -10,-95 -1,-18 -4,-32 -7,-44 -3,-11 -7,-20 -11,-26 -4,-6 -7,-10 -11,-12 -3,-2 -5,-4 -7,-5 z m 345,-79 c -3,11 -6,23 -9,36 -4,13 -7,26 -10,39 -3,13 -5,25 -8,37 -2,11 -3,20 -3,27 v 759.0001 c 0,5 -2,9 -5,11 -4,2 -8,3 -13,3 -3,0 -6,-1 -9,-3 -4,-2 -6,-6 -6,-11 l -41,-750.0001 c 0,-8 -1,-17 -2,-25 -2,-9 -4,-16 -6,-23 -2,-6 -5,-12 -7,-15 -3,-4 -6,-6 -9,-6 h -81 c -1,6 -1,13 -2,21 0,9 0,17 0,24 0,8 0,15 0,22 0,7 0,11 0,15 v 272 c 0,6 -1,10 -3,13 -1,2 -3,3 -4,3 -3,0 -6,-2 -9,-5 -4,-4 -8,-8 -11,-12 -34,-39 -64,-68 -90,-88 -25,-20 -51,-29 -77,-29 -15,0 -30,0 -46,2 -17,2 -35,5 -54,9 0,-2 0,-7 2,-15 1,-7 3,-16 7,-25 4,-10 8,-19 15,-27 6,-9 13,-15 23,-20 0,-4 0,-6 -1,-8 0,-2 0,-3 0,-5 -1,-1 -1,-3 -1,-4 0,-2 0,-6 0,-10 0,-11 1,-22 1,-35 1,-12 3,-25 5,-37 3,-13 6,-24 11,-35 5,-11 11,-20 18,-26 h -37 c -10,0 -17,-1 -19,-3 -3,-1 -5,-5 -5,-12 0,-4 1,-8 3,-12 2,-5 5,-9 7,-14 l 20,-38 z m 119,121 c -5,0 -8,-1 -10,-4 -2,-3 -5,-8 -8,-15 -4,-7 -7,-14 -12,-21 -4,-8 -8,-15 -11,-22 -4,-6 -7,-13 -10,-19 -2,-6 -4,-11 -4,-14 0,-6 3,-12 7,-18 5,-6 12,-8 22,-8 h 51 c 10,0 18,2 22,8 5,6 7,12 7,18 0,3 -1,8 -4,14 -2,6 -6,13 -9,19 -4,7 -8,14 -12,22 -4,7 -8,14 -11,21 -3,7 -6,12 -8,15 -2,3 -6,4 -10,4 z m 500,-121 -27,59 c -6,13 -24,20 -53,20 h -147 c -14,0 -27,4 -40,14 -13,9 -25,20 -36,34 -10,14 -19,29 -25,46 -7,16 -10,31 -10,45 9,-5 19,-7 31,-8 12,-2 25,-2 39,-2 36,0 69,5 98,16 30,11 56,25 79,43 24,17 44,35 62,56 17,20 31,40 43,59 12,19 20,36 26,50 6,15 9,25 9,30 0,3 -2,5 -5,6 -3,2 -6,3 -10,3 -1,0 -4,-5 -11,-14 -7,-9 -17,-20 -29,-34 -13,-13 -28,-28 -45,-44 -17,-15 -37,-30 -59,-43 -22,-14 -46,-25 -72,-34 -26,-9 -53,-14 -83,-14 -20,0 -43,2 -69,7 -26,5 -51,12 -75,21 0,-8 1,-17 2,-26 2,-9 4,-18 7,-25 3,-8 7,-16 10,-22 4,-6 7,-10 11,-12 0,-34 5,-63 13,-89 9,-26 21,-47 37,-63 h -28 c -10,0 -16,-1 -19,-3 -3,-1 -4,-5 -4,-12 0,-2 1,-6 3,-12 3,-6 6,-13 9,-19 3,-7 7,-14 10,-20 3,-6 6,-11 7,-13 z m 103,121 c -4,0 -7,-1 -10,-4 -2,-3 -5,-8 -8,-15 -3,-7 -7,-14 -11,-21 -4,-8 -8,-15 -12,-22 -3,-6 -6,-13 -9,-19 -3,-6 -4,-11 -4,-14 0,-6 2,-12 7,-18 4,-6 12,-8 22,-8 h 51 c 10,0 17,2 22,8 5,6 7,12 7,18 0,3 -1,8 -4,14 -3,6 -6,13 -10,19 -3,7 -7,14 -11,22 -4,7 -8,14 -11,21 -4,7 -7,12 -9,15 -2,3 -5,4 -10,4 z m 162,-121 c 8,0 14,1 18,3 4,2 6,6 6,12 0,11 -1,21 -4,31 -3,10 -6,21 -9,32 -3,11 -6,22 -9,33 -4,10 -6,21 -6,32 v 754.0001 c 0,2 -1,6 -4,9 -3,4 -8,6 -15,6 -4,0 -8,-2 -11,-6 -3,-3 -4,-7 -4,-9 l -40,-747.0001 c 0,-3 -1,-8 -3,-14 -1,-5 -3,-11 -5,-17 -3,-6 -5,-11 -9,-17 -3,-5 -6,-9 -9,-12 v -34 l 23,-56 z m 1046,0 -26,59 c -6,13 -24,20 -53,20 h -70 c 1,6 2,13 2,21 0,7 0,15 0,23 0,7 -2,14 -6,21 -4,6 -6,12 -7,18 16,0 35,4 56,11 20,7 40,16 59,27 18,12 33,26 46,41 12,16 18,33 18,51 0,22 -6,45 -18,67 -12,23 -28,43 -46,61 -19,19 -41,33 -64,45 -23,12 -46,17 -68,17 -26,0 -51,-7 -73,-23 -23,-16 -43,-35 -62,-58 -18,-22 -34,-46 -48,-71 -14,-25 -25,-46 -34,-63 -5,-9 -10,-16 -16,-24 -6,-7 -12,-13 -17,-19 -5,-6 -9,-11 -13,-15 -4,-4 -5,-8 -5,-10 0,-6 4,-9 13,-9 8,0 14,2 20,5 6,4 12,8 18,13 6,4 12,9 20,14 8,4 15,7 23,7 10,0 24,-2 41,-6 18,-3 35,-9 53,-16 17,-7 32,-16 45,-26 13,-10 19,-22 19,-34 0,-12 -2,-23 -6,-32 -4,-9 -10,-16 -16,-21 -6,-5 -13,-9 -20,-11 -7,-3 -13,-4 -18,-4 h -77 c -10,0 -16,-1 -19,-3 -2,-1 -4,-5 -4,-12 0,-2 2,-6 4,-12 3,-6 5,-13 9,-19 3,-7 6,-14 10,-20 3,-6 5,-11 7,-13 z m -48,339 c 0,-15 -4,-29 -12,-41 -8,-13 -18,-23 -32,-32 -13,-9 -29,-16 -46,-20 -18,-5 -35,-8 -53,-8 -8,2 -18,3 -29,6 -11,2 -22,5 -35,8 -12,3 -25,6 -38,9 -13,3 -27,4 -40,6 7,14 17,29 28,46 11,16 24,32 40,46 15,14 33,26 52,36 20,9 42,14 65,14 9,0 19,-3 31,-8 12,-5 23,-11 33,-18 10,-7 19,-15 26,-23 7,-8 10,-15 10,-21 z m 134,-218 c -5,0 -8,-1 -10,-4 -3,-3 -5,-8 -9,-15 -3,-7 -7,-14 -11,-21 -4,-8 -8,-15 -11,-22 -4,-6 -7,-13 -10,-19 -3,-6 -4,-11 -4,-14 0,-6 2,-12 7,-18 5,-6 12,-8 22,-8 h 51 c 10,0 17,2 22,8 5,6 7,12 7,18 0,3 -1,8 -4,14 -3,6 -6,13 -10,19 -3,7 -7,14 -11,22 -4,7 -8,14 -11,21 -4,7 -6,12 -9,15 -2,3 -5,4 -9,4 z m 509,-121 -27,59 c -4,8 -10,14 -19,16 -9,3 -18,4 -29,4 h -84 c 0,3 0,6 -1,10 0,4 -1,7 -1,8 0,10 0,24 -1,40 -2,16 -4,34 -7,53 4,-1 8,-3 14,-4 6,-1 12,-3 20,-4 7,-2 15,-3 23,-3 9,-1 16,-1 23,-1 25,0 46,4 63,13 17,9 30,20 41,35 10,15 18,32 23,52 4,19 7,40 7,62 0,20 -3,39 -8,58 -5,19 -13,37 -23,52 -10,15 -22,27 -36,36 -13,9 -29,14 -46,14 -16,0 -32,-3 -46,-8 -14,-5 -27,-11 -38,-18 -10,-7 -20,-15 -27,-22 -7,-8 -12,-15 -14,-21 -1,5 -4,11 -10,19 -5,7 -12,14 -22,21 -9,7 -19,13 -31,18 -11,5 -23,7 -36,7 -17,0 -34,-3 -50,-10 -16,-8 -30,-18 -42,-31 -12,-13 -22,-29 -29,-48 -7,-19 -11,-40 -11,-63 0,-21 3,-42 10,-62 8,-20 18,-37 31,-52 13,-15 28,-28 45,-37 18,-9 36,-14 56,-14 13,0 27,1 42,3 15,2 26,5 31,8 0,-13 -1,-25 -4,-38 -4,-14 -8,-26 -13,-36 -6,-11 -11,-20 -18,-27 -6,-7 -12,-10 -17,-10 h -82 c -12,0 -19,-1 -21,-3 -3,-1 -4,-5 -4,-11 0,-4 1,-8 4,-15 2,-7 5,-13 8,-20 4,-7 7,-13 10,-18 4,-6 6,-10 8,-12 z m -121,251 c -5,0 -11,1 -17,3 -6,2 -12,8 -17,16 -5,8 -10,21 -13,37 -3,17 -5,40 -5,69 0,10 4,18 11,25 7,7 16,13 27,17 10,4 22,7 35,9 13,2 26,3 37,3 23,0 38,-7 46,-20 8,-14 12,-35 12,-63 0,-11 -2,-23 -7,-34 -4,-12 -11,-22 -20,-31 -10,-9 -22,-17 -36,-23 -15,-5 -32,-8 -53,-8 z m -163,-3 c -16,0 -29,3 -41,8 -12,5 -21,12 -29,20 -7,8 -12,17 -16,27 -3,10 -5,20 -5,29 0,11 2,23 7,34 4,11 10,22 18,31 8,9 17,16 28,22 11,5 23,8 37,8 11,0 21,-2 30,-6 9,-4 17,-12 23,-24 6,-11 11,-28 14,-49 4,-21 5,-49 5,-83 -1,-2 -5,-5 -11,-7 -6,-2 -12,-4 -19,-5 -7,-1 -15,-3 -22,-3 -8,-1 -14,-2 -19,-2 z m 378,-127 c -4,0 -8,-1 -10,-4 -2,-3 -5,-8 -8,-15 -3,-7 -7,-14 -11,-21 -4,-8 -8,-15 -12,-22 -3,-6 -7,-13 -9,-19 -3,-6 -4,-11 -4,-14 0,-6 2,-12 7,-18 4,-6 12,-8 22,-8 h 51 c 10,0 17,2 22,8 4,6 7,12 7,18 0,3 -2,8 -4,14 -3,6 -6,13 -10,19 -3,7 -7,14 -11,22 -5,7 -8,14 -12,21 -3,7 -6,12 -8,15 -2,3 -5,4 -10,4 z m 502,-121 -28,59 c -6,13 -24,20 -53,20 h -181 c -13,0 -24,5 -34,14 -10,10 -19,21 -26,34 -7,13 -13,25 -18,38 -4,13 -7,23 -8,30 4,-5 12,-10 24,-14 11,-5 25,-9 40,-12 16,-4 32,-7 48,-9 17,-2 32,-3 45,-3 18,0 33,2 46,5 14,3 26,4 38,4 6,0 12,-1 18,-3 7,-2 13,-5 19,-8 6,-3 11,-5 16,-8 4,-2 7,-3 8,-3 1,0 3,2 4,4 1,3 2,6 3,10 1,3 2,7 3,11 0,4 1,7 1,9 0,7 -4,14 -10,21 -6,7 -13,13 -23,19 -9,5 -19,10 -30,13 -11,4 -21,6 -31,6 -11,0 -23,-1 -37,-3 -13,-2 -27,-4 -41,-6 -15,-2 -29,-4 -43,-6 -15,-2 -29,-3 -42,-3 -9,0 -19,3 -30,7 -11,4 -19,7 -23,10 -3,4 -5,8 -5,14 0,5 -1,13 -1,24 v 31 c 5,-1 11,-3 20,-5 9,-1 18,-3 29,-4 11,-2 22,-3 35,-4 12,-1 24,-1 36,-1 14,0 31,2 50,8 19,5 39,13 60,22 21,9 41,19 62,32 20,12 38,24 54,38 16,13 29,26 39,40 10,15 15,28 15,41 0,1 -2,2 -5,3 -3,0 -6,1 -11,1 -4,0 -16,-5 -34,-16 -19,-10 -41,-22 -68,-34 -27,-13 -57,-24 -89,-35 -32,-10 -63,-15 -94,-15 -21,0 -41,1 -59,3 -19,2 -36,5 -51,8 -15,3 -29,6 -41,9 -12,2 -21,4 -28,5 0,-12 3,-26 9,-41 5,-16 16,-29 32,-40 v -82 c 0,-22 0,-40 1,-55 2,-15 4,-28 7,-40 3,-11 7,-22 11,-32 5,-10 11,-21 19,-32 h -16 c -10,0 -16,-1 -19,-3 -3,-1 -4,-5 -4,-12 0,-2 1,-6 4,-12 2,-6 5,-13 8,-19 4,-7 7,-14 10,-20 4,-6 6,-11 8,-13 z m 3852,0 c 8,0 14,1 18,3 4,2 6,6 6,12 0,11 -1,21 -4,31 -3,10 -6,21 -9,32 -3,11 -6,22 -10,33 -3,10 -5,21 -5,32 v 754.0001 c 0,2 -1,6 -4,9 -3,4 -8,6 -16,6 -4,0 -7,-2 -10,-6 -3,-3 -5,-7 -5,-9 l -39,-747.0001 c 0,-3 -1,-8 -3,-14 -2,-5 -3,-11 -6,-17 -2,-6 -5,-11 -8,-17 -3,-5 -7,-9 -10,-12 v -34 l 23,-56 z m -447,412 c 13,0 24,-3 35,-9 11,-7 20,-15 29,-27 8,-11 15,-23 21,-37 5,-14 10,-29 12,-45 -14,-15 -29,-27 -46,-35 -16,-9 -35,-13 -56,-13 -13,0 -25,3 -36,8 -11,6 -20,13 -27,21 -8,8 -13,17 -17,27 -4,10 -6,19 -6,27 0,24 7,44 22,59 14,16 37,24 69,24 z m 265,-412 -27,59 c -6,13 -24,20 -53,20 h -84 c 11,16 19,35 25,58 6,22 10,47 12,73 14,13 27,28 40,47 14,18 26,42 36,70 11,27 20,60 27,98 7,38 12,81 15,131 l 17,337.0001 c 0,6 -1,10 -3,14 -3,4 -6,5 -11,5 -5,0 -10,-1 -13,-5 -4,-4 -6,-8 -7,-14 l -30,-269 c -3,-23.0001 -6,-47.0001 -10,-72.0001 -4,-25 -9,-50 -16,-75 -6,-24 -13,-48 -22,-71 -8,-24 -18,-45 -30,-65 -4,19 -9,36 -16,53 -7,16 -15,30 -26,42 -10,11 -23,21 -38,28 -15,7 -32,10 -51,10 -22,0 -42,-3 -60,-8 -19,-5 -35,-14 -48,-26 -14,-12 -24,-28 -32,-46 -8,-20 -11,-43 -11,-71 0,-18 2,-36 8,-55 5,-19 14,-36 27,-51 12,-16 29,-29 49,-39 21,-10 46,-15 76,-15 8,0 18,1 31,2 13,2 27,5 42,12 -6,-14 -13,-27 -21,-39 -7,-12 -15,-22 -23,-31 -8,-9 -16,-16 -23,-21 -8,-5 -15,-7 -22,-7 h -82 c -9,0 -14,-1 -16,-3 -1,-2 -2,-6 -2,-12 0,-2 1,-6 4,-12 2,-6 5,-13 9,-19 3,-7 6,-14 9,-20 4,-6 6,-11 8,-13 z m -506,121 c -4,0 -7,-1 -10,-4 -2,-3 -5,-8 -8,-15 -3,-7 -7,-14 -11,-21 -4,-8 -8,-15 -12,-22 -3,-6 -6,-13 -9,-19 -3,-6 -4,-11 -4,-14 0,-6 2,-12 7,-18 4,-6 12,-8 22,-8 h 51 c 10,0 17,2 22,8 4,6 7,12 7,18 0,3 -2,8 -4,14 -3,6 -6,13 -10,19 -3,7 -7,14 -11,22 -4,7 -8,14 -12,21 -3,7 -6,12 -8,15 -2,3 -5,4 -10,4 z m -117,-121 -28,59 c -6,13 -23,20 -52,20 h -70 c -18,0 -37,4 -57,11 -19,7 -37,16 -53,29 -17,12 -30,25 -40,41 -11,15 -16,31 -16,48 6,-3 15,-5 28,-7 13,-2 31,-3 55,-3 18,0 38,3 59,10 21,6 41,16 60,27 19,12 36,25 52,41 15,16 27,33 34,51 6,13 11,26 17,40 6,15 11,32 16,51 5,20 10,43 15,70 5,26 9,59 12,96 4,38.0001 7,83.0001 9,134.0001 2,51 3,110 3,178 0,5 -2,9 -4,12 -3,3 -6,4 -10,4 -3,0 -7,-1 -12,-4 -4,-3 -6,-7 -7,-12 -4,-36 -7,-76 -10,-120 -3,-44 -7,-89 -13,-134 -6,-45.0001 -14,-89.0001 -25,-131.0001 -11,-43 -26,-81 -45,-114 -19,-33 -44,-59 -73,-80 -30,-20 -67,-30 -111,-30 -11,0 -24,2 -38,4 -14,3 -28,6 -41,9 -13,4 -24,7 -34,10 -10,2 -16,4 -20,5 0,-25 4,-44 12,-58 8,-14 19,-25 31,-34 0,-24 1,-44 4,-59 2,-15 5,-28 9,-38 3,-11 8,-19 14,-26 5,-7 12,-14 19,-21 h -38 c -9,0 -14,-1 -16,-3 -1,-2 -2,-6 -2,-12 0,-2 2,-6 4,-12 3,-6 5,-13 9,-19 3,-7 6,-14 10,-20 3,-6 5,-11 7,-13 z m -478,121 c -4,0 -8,-1 -10,-4 -2,-3 -5,-8 -8,-15 -4,-7 -7,-14 -11,-21 -5,-8 -8,-15 -12,-22 -4,-6 -7,-13 -9,-19 -3,-6 -5,-11 -5,-14 0,-6 3,-12 7,-18 5,-6 12,-8 22,-8 h 52 c 9,0 17,2 21,8 5,6 8,12 8,18 0,3 -2,8 -5,14 -2,6 -6,13 -9,19 -4,7 -8,14 -12,22 -4,7 -8,14 -11,21 -3,7 -6,12 -8,15 -2,3 -6,4 -10,4 z m -416,-42 c -11,0 -20,1 -26,4 -6,2 -10,5 -13,10 -3,4 -5,10 -6,16 -1,6 -1,12 -1,20 0,4 1,11 5,18 3,7 9,14 18,20 9,7 22,12 37,17 16,4 37,6 62,6 17,0 32,-1 48,-4 15,-2 28,-6 39,-11 11,-5 20,-11 26,-19 7,-8 10,-17 10,-27 0,-11 0,-20 -1,-27 -1,-7 -2,-12 -3,-15 -2,-3 -3,-5 -5,-6 -2,-2 -4,-2 -6,-2 z m 198,152 c -8,1 -15,2 -20,4 -5,1 -10,3 -17,5 -6,2 -16,4 -27,7 -12,3 -30,7 -53,11 -7,2 -17,6 -31,11 -15,6 -29,12 -43,18 -15,6 -28,13 -39,20 -12,7 -18,14 -18,21 5,-1 11,-2 16,-2 6,-1 12,-1 17,-1 20,0 43,6 67,17 25,11 49,24 73,39 23,15 44,30 63,45 19,15 34,26 43,34 z m 99,-231 c -3,11 -6,23 -9,36 -4,13 -7,26 -10,40 -3,13 -5,25 -8,36 -2,12 -3,21 -3,28 v 361 c 0,4 -1,7 -2,10 -1,3 -3,4 -6,4 -4,0 -8,-1 -13,-3 -4,-1 -8,-4 -12,-6 -13,-9 -31,-19 -52,-30 -22,-12 -45,-23 -70,-33 -25,-10 -51,-19 -77,-26 -27,-8 -51,-11 -74,-11 -5,0 -12,0 -21,0 -9,0 -18,1 -29,2 -10,0 -21,2 -32,3 -11,2 -21,4 -32,7 0,-12 2,-22 5,-32 4,-10 8,-19 14,-28 6,-8 12,-15 18,-20 7,-6 13,-10 19,-12 0,-8 3,-16 8,-25 6,-9 13,-17 22,-25 9,-9 20,-16 31,-23 11,-7 22,-12 33,-16 -5,0 -14,-2 -26,-5 -13,-3 -25,-8 -38,-15 -13,-8 -24,-18 -34,-30 -10,-13 -15,-28 -15,-48 0,-13 3,-25 7,-37 5,-11 9,-18 13,-22 -10,0 -16,-1 -19,-3 -3,-1 -4,-6 -4,-12 0,-4 1,-8 3,-13 2,-4 4,-8 7,-13 l 20,-39 z m -529,121 c -5,0 -8,-1 -10,-4 -2,-3 -5,-8 -9,-15 -3,-7 -7,-14 -11,-21 -4,-8 -8,-15 -11,-22 -4,-6 -7,-13 -10,-19 -3,-6 -4,-11 -4,-14 0,-6 2,-12 7,-18 5,-6 12,-8 22,-8 h 51 c 10,0 18,2 22,8 5,6 7,12 7,18 0,3 -1,8 -4,14 -3,6 -6,13 -9,19 -4,7 -8,14 -12,22 -4,7 -8,14 -11,21 -4,7 -6,12 -8,15 -3,3 -6,4 -10,4 z m -410,150 c 6,-7 15,-15 24,-24 10,-8 22,-16 35,-23 13,-7 28,-14 44,-19 15,-5 32,-7 50,-7 28,0 51,5 71,14 19,9 34,22 46,36 12,15 20,32 25,50 5,17 7,35 7,51 0,17 -7,40 -20,69 -14,29 -31,62 -53,97 -21,36 -45,73 -71,112.0001 -26,39 -52,76 -78,111 -25,36 -49,68 -71,97 -22,29 -40,51 -52,67 -3,3 -6,5 -10,7 -5,2 -8,2 -11,2 -3,0 -7,-1 -10,-3 -3,-2 -4,-5 -4,-8 0,-1 4,-7 12,-19 8,-11 19,-27 32,-47 14,-20 29,-43 46,-69 16,-26 34,-53 52,-82 18,-28 35,-57 52,-87.0001 17,-29 32,-58 45,-85 14,-28 25,-54 32,-77 9,-23 12,-43 12,-59 0,-11 -1,-22 -3,-33 -3,-12 -7,-22 -12,-32 -5,-10 -12,-18 -20,-24 -8,-6 -18,-9 -30,-9 -11,0 -23,1 -37,4 -15,2 -28,5 -42,8 -14,3 -27,7 -38,11 -11,4 -19,8 -23,12 1,8 2,17 2,29 1,12 1,25 1,38 0,10 0,19 -1,29 0,9 -1,17 -2,24 -2,8 -3,14 -5,18 -3,4 -5,7 -9,7 -4,0 -7,-2 -8,-4 -2,-3 -3,-8 -5,-16 l -10,-65 c -4,-24 -8,-50 -13,-76 -4,-26 -9,-51 -13,-75 -4,-25 -8,-48 -11,-70 -3,-22 -4,-42 -5,-60 0,-3 2,-10 6,-20 4,-10 9,-20 15,-31 5,-10 11,-20 16,-28 5,-8 9,-12 12,-12 h 337 l -27,59 c -6,13 -17,20 -32,20 h -219 c -5,0 -10,2 -14,5 -4,3 -8,7 -10,11 -3,5 -5,9 -7,14 -1,4 -2,8 -2,10 z m -697,-271 c 8,0 14,1 18,3 4,2 6,6 6,12 0,11 -1,21 -4,31 -3,10 -6,21 -9,32 -3,11 -6,22 -9,33 -4,10 -6,21 -6,32 v 754.0001 c 0,2 -1,6 -4,9 -3,4 -8,6 -16,6 -3,0 -7,-2 -10,-6 -3,-3 -4,-7 -4,-9 l -40,-747.0001 c 0,-3 -1,-8 -3,-14 -1,-5 -3,-11 -5,-17 -3,-6 -5,-11 -9,-17 -3,-5 -6,-9 -10,-12 v -34 l 24,-56 z m -375,225 c 9,-4 19,-8 29,-10 10,-3 21,-4 32,-4 24,0 44,4 61,13 16,8 29,19 39,32 10,14 17,29 22,47 4,18 6,35 6,54 0,25 -4,53 -13,83 -9,30 -21,61 -37,94 -15,32 -32,65 -52,98.0001 -20,33 -40,65 -62,97 -21,31 -42,61 -63,90 -22,28 -41,54 -59,77 -9,11 -21,16 -34,16 -3,0 -5,0 -7,-1 -3,-1 -4,-3 -4,-5 0,-2 0,-4 1,-6 0,-1 1,-3 2,-4 15,-21 30,-45 48,-72 18,-27 36,-56 53,-86 18,-30 36,-61 53,-93 17,-31.0001 32,-62.0001 46,-91.0001 13,-30 23,-57 31,-83 8,-26 12,-48 12,-67 0,-17 -3,-33 -9,-49 -7,-16 -15,-30 -27,-43 -11,-13 -24,-23 -39,-31 -15,-8 -32,-12 -49,-12 -8,0 -15,2 -22,7 -7,4 -14,9 -20,15 -5,6 -10,12 -14,18 -3,6 -5,11 -5,15 0,5 2,11 5,18 4,8 9,15 16,22 6,7 14,13 23,18 9,5 18,8 28,8 7,0 15,-1 22,-4 8,-2 14,-3 17,-3 2,0 2,1 3,3 0,2 0,3 0,4 0,4 -1,8 -3,12 l -20,37 c -4,8 -10,15 -17,21 -8,5 -18,8 -33,8 -10,0 -20,-2 -32,-5 -11,-4 -22,-10 -31,-19 -10,-9 -18,-20 -24,-35 -6,-14 -9,-33 -9,-55 0,-12 2,-24 8,-35 5,-11 12,-21 20,-31 8,-9 17,-18 27,-27 9,-8 19,-16 27,-23 11,-12 21,-27 30,-45 9,-18 13,-37 13,-55 0,-16 -6,-30 -17,-42 -12,-12 -32,-18 -60,-18 -11,0 -21,2 -29,7 -9,4 -17,10 -23,17 -6,8 -11,16 -15,26 -3,9 -5,19 -5,29 0,7 1,13 3,19 1,6 4,12 6,18 3,6 5,12 7,18 2,7 3,13 3,21 0,8 -2,16 -5,25 -4,9 -8,17 -12,24 -5,7 -10,12 -15,17 -5,4 -9,6 -12,6 -4,0 -6,-1 -8,-4 -1,-2 -1,-5 -1,-7 0,-8 -2,-15 -5,-23 -4,-7 -7,-15 -10,-23 -4,-7 -7,-15 -11,-23 -3,-8 -5,-16 -5,-25 0,-10 3,-23 8,-37 5,-15 11,-30 20,-45 8,-15 17,-30 29,-45 11,-15 23,-28 36,-40 12,-11 26,-21 39,-28 14,-7 27,-11 40,-11 26,0 47,3 63,7 17,5 31,11 41,18 11,8 18,17 23,28 4,10 6,21 6,34 0,13 -1,25 -4,36 -3,10 -6,20 -11,28 -4,9 -9,17 -16,24 -6,8 -13,16 -20,24 z m -316,-104 c -4,0 -7,-1 -10,-4 -2,-3 -5,-8 -8,-15 -3,-7 -7,-14 -11,-21 -4,-8 -8,-15 -12,-22 -3,-6 -6,-13 -9,-19 -3,-6 -4,-11 -4,-14 0,-6 2,-12 7,-18 4,-6 12,-8 22,-8 h 51 c 10,0 17,2 22,8 5,6 7,12 7,18 0,3 -1,8 -4,14 -3,6 -6,13 -10,19 -3,7 -7,14 -11,22 -4,7 -8,14 -11,21 -4,7 -7,12 -9,15 -2,3 -5,4 -10,4 z"
     class="fil0" /><path
     style="fill:#373435"
     inkscape:connector-curvature="0"
     id="path9"
     d="m 1347,2048.8346 c -9,3 -19,7 -30,12 -10,6 -21,12 -32,20 -10,8 -21,16 -31,25 -11,9 -20,17 -29,26 29,15 56,34 81,57 24,23 44,48 59,77 l -16,-198 c -1,-4 -1,-7 -1,-10 -1,-3 -1,-6 -1,-9 z m -123,-160 -27,60 c -7,13 -24,19 -54,19 -3,0 -9,4 -18,10 -9,6 -18,15 -29,27 -9,11 -18,25 -26,41 -8,16 -12,34 -12,53 10,-2 20,-2 30,-2 33,0 67,6 100,19 9,-12 18,-25 28,-38 11,-12 23,-24 36,-35 13,-12 26,-22 41,-31 14,-9 30,-15 46,-20 -5,-16 -13,-24 -27,-24 h -7 l 37,-79 h 95 c -2,8 -5,18 -8,30 -4,12 -8,25 -11,37 -3,13 -6,26 -9,38 -2,12 -3,21 -3,28 v 319 c 0,4 -2,6 -4,8 -3,1 -6,2 -10,2 -5,0 -9,-1 -13,-3 -4,-1 -8,-4 -10,-7 -40,-46 -84,-84 -133,-111 -48,-27 -101,-41 -159,-41 -5,0 -13,1 -23,1 -10,1 -20,3 -31,4 -10,2 -21,4 -30,5 -10,2 -17,3 -23,5 0,-7 1,-15 3,-25 3,-10 6,-19 10,-29 4,-9 9,-18 15,-26 6,-8 13,-14 20,-17 0,-21 1,-40 5,-56 3,-16 6,-29 10,-41 4,-11 9,-20 13,-27 4,-7 8,-12 11,-15 h -46 c -10,0 -16,0 -19,-2 -2,-2 -4,-6 -4,-12 0,-3 1,-7 4,-13 2,-6 5,-12 9,-19 3,-6 6,-13 10,-19 3,-7 5,-11 7,-14 z m -330,122 c -4,0 -8,-2 -10,-4 -2,-3 -5,-8 -8,-15 -3,-7 -7,-14 -11,-21 -4,-8 -8,-15 -12,-22 -3,-7 -7,-13 -9,-19 -3,-6 -5,-11 -5,-14 0,-7 3,-12 7,-18 5,-6 12,-9 22,-9 h 52 c 10,0 17,3 22,9 4,6 7,11 7,18 0,3 -2,8 -5,14 -2,6 -6,12 -9,19 -4,7 -8,14 -12,22 -4,7 -8,14 -11,21 -3,7 -6,12 -8,15 -2,2 -6,4 -10,4 z m -331,-122 -28,60 c -6,13 -24,19 -54,19 -2,0 -8,4 -17,10 -9,6 -19,15 -29,27 -10,11 -19,25 -27,41 -8,16 -12,34 -12,53 10,-2 20,-2 31,-2 26,0 53,4 80,12 27,8 53,20 78,35 25,15 47,32 68,53 21,21 38,44 51,69 l -17,-198 c -1,-19 -3,-35 -4,-48 -2,-13 -3,-23 -6,-31 -2,-8 -6,-13 -10,-16 -4,-4 -9,-5 -16,-5 h -7 l 37,-79 h 95 c -2,8 -5,18 -9,30 -4,12 -7,25 -10,37 -4,13 -6,26 -9,38 -2,12 -4,21 -4,28 v 319 c 0,4 -1,6 -4,8 -2,1 -6,2 -10,2 -4,0 -8,-1 -13,-3 -4,-1 -7,-4 -10,-7 -39,-46 -84,-84 -132,-111 -49,-27 -102,-41 -159,-41 -6,0 -14,1 -24,1 -9,1 -19,3 -30,4 -11,2 -21,4 -31,5 -9,2 -17,3 -22,5 0,-7 1,-15 3,-25 2,-10 5,-19 10,-29 4,-9 9,-18 15,-26 6,-8 12,-14 20,-17 0,-21 1,-40 4,-56 3,-16 7,-29 11,-41 4,-11 8,-20 13,-27 4,-7 8,-12 10,-15 h -45 c -10,0 -16,0 -19,-2 -3,-2 -4,-6 -4,-12 0,-3 1,-7 4,-13 2,-6 5,-12 8,-19 4,-6 7,-13 10,-19 3,-7 6,-11 8,-14 z m 992,122 c -4,0 -7,-2 -9,-4 -3,-3 -6,-8 -9,-15 -3,-7 -7,-14 -11,-21 -4,-8 -8,-15 -12,-22 -3,-7 -6,-13 -9,-19 -3,-6 -4,-11 -4,-14 0,-7 2,-12 7,-18 4,-6 12,-9 22,-9 h 51 c 10,0 17,3 22,9 5,6 7,11 7,18 0,3 -1,8 -4,14 -3,6 -6,12 -10,19 -3,7 -7,14 -11,22 -4,7 -8,14 -11,21 -4,7 -6,12 -9,15 -2,2 -5,4 -10,4 z m 543,-122 c -3,11 -6,23 -9,36 -4,14 -7,27 -10,40 -3,13 -5,26 -8,37 -2,11 -3,21 -3,28 v 319 c 0,3 -1,6 -4,7 -3,2 -6,3 -10,3 -4,0 -8,-1 -9,-3 -2,-2 -4,-4 -7,-7 -20,-23 -41,-45 -63,-65 -22,-20 -46,-38 -71,-53 -24,-15 -50,-27 -77,-36 -27,-8 -54,-12 -83,-12 -6,0 -14,0 -23,1 -8,1 -17,2 -27,4 -10,1 -19,3 -28,5 -9,1 -16,3 -21,5 0,-8 0,-15 2,-24 1,-8 3,-16 7,-24 3,-9 7,-16 12,-23 5,-6 11,-12 18,-15 0,-21 2,-40 5,-56 3,-17 7,-31 11,-43 4,-12 8,-22 12,-29 5,-8 8,-13 11,-16 h -25 c -10,0 -16,0 -19,-2 -2,-2 -4,-6 -4,-12 0,-4 1,-8 3,-13 2,-4 4,-9 7,-13 l 20,-39 z m -289,79 c -5,0 -13,4 -22,11 -10,7 -19,16 -28,28 -10,12 -18,27 -25,43 -7,17 -10,35 -10,54 2,0 6,-1 11,-1 5,0 10,-1 15,-1 5,0 10,0 15,0 5,0 8,0 11,0 21,0 44,4 68,11 24,8 47,19 70,33 23,15 44,32 64,52 20,21 36,44 49,69 l -18,-199 c -2,-29 -6,-53 -11,-71 -4,-19 -11,-29 -19,-29 z m 408,43 c -5,0 -8,-2 -10,-4 -2,-3 -5,-8 -8,-15 -4,-7 -7,-14 -12,-21 -4,-8 -8,-15 -11,-22 -4,-7 -7,-13 -10,-19 -2,-6 -4,-11 -4,-14 0,-7 3,-12 7,-18 5,-6 12,-9 22,-9 h 51 c 10,0 18,3 22,9 5,6 7,11 7,18 0,3 -1,8 -4,14 -3,6 -6,12 -9,19 -4,7 -8,14 -12,22 -4,7 -8,14 -11,21 -3,7 -6,12 -8,15 -2,2 -6,4 -10,4 z m 414,-122 -29,60 c -3,7 -8,12 -16,15 -7,2 -15,4 -24,4 v 89 c 13,9 28,24 44,45 17,20 33,42 49,65 17,24 32,47 45,70 13,23 24,41 31,54 l -17,-223 c -2,-19 -3,-35 -5,-48 -1,-13 -3,-23 -6,-31 -2,-8 -5,-13 -10,-16 -4,-4 -9,-5 -16,-5 h -7 l 37,-79 h 94 c -2,8 -5,18 -8,30 -4,11 -7,24 -11,37 -3,13 -6,25 -8,37 -2,12 -3,22 -3,29 v 328 c 0,10 -5,15 -13,15 -4,0 -9,-1 -14,-4 -5,-2 -9,-6 -13,-11 -13,-15 -27,-32 -41,-50 -14,-18 -28,-36 -43,-54 -14,-17 -28,-34 -43,-51 -15,-16 -29,-31 -42,-44 0,12 -4,26 -10,43 -6,17 -15,33 -27,49 -12,15 -26,29 -43,40 -17,11 -36,16 -57,16 -20,0 -37,-4 -53,-12 -15,-8 -28,-19 -39,-32 -10,-14 -18,-29 -23,-45 -5,-17 -8,-34 -8,-50 0,-17 3,-33 8,-49 6,-16 14,-31 25,-44 10,-13 24,-23 41,-31 16,-7 36,-11 58,-11 7,0 15,0 24,2 10,1 19,3 27,4 9,2 17,4 24,5 7,2 11,3 12,4 0,-10 -3,-20 -7,-28 -5,-9 -11,-17 -19,-23 -7,-7 -14,-11 -23,-15 -8,-4 -15,-6 -22,-6 h -65 c -12,0 -19,0 -21,-2 -3,-2 -4,-6 -4,-12 0,-3 1,-8 4,-14 2,-7 5,-14 8,-20 4,-7 7,-13 10,-19 3,-6 6,-10 7,-12 z m -110,239 c -3,-3 -7,-5 -14,-8 -6,-3 -13,-6 -22,-8 -8,-3 -17,-5 -27,-6 -11,-1 -21,-2 -31,-2 -25,0 -43,6 -56,19 -13,12 -19,27 -19,43 0,8 1,17 4,26 4,9 9,17 15,24 6,7 13,13 23,17 9,4 19,7 31,7 13,0 26,-3 37,-9 12,-6 22,-14 31,-24 9,-10 16,-22 21,-35 4,-14 7,-29 7,-44 z m 453,-239 c 8,0 14,1 18,3 4,3 6,7 6,13 0,10 -1,21 -5,31 -2,10 -5,21 -8,32 -3,11 -6,22 -10,32 -3,11 -5,22 -5,33 v 753 c 0,3 -1,6 -4,10 -3,4 -8,6 -16,6 -4,0 -7,-2 -10,-6 -3,-4 -5,-7 -5,-10 l -39,-746 c 0,-4 -1,-8 -3,-14 -2,-6 -4,-12 -6,-17 -2,-6 -5,-12 -8,-17 -3,-5 -7,-9 -10,-13 v -34 l 23,-56 z m 987,0 c 0,-3 0,-8 -1,-14 -1,-5 -3,-11 -6,-18 -2,-6 -5,-12 -9,-19 -3,-6 -7,-12 -12,-17 -5,-5 -9,-8 -13,-11 -5,-3 -7,-6 -7,-8 0,-2 1,-4 3,-7 2,-3 4,-5 5,-6 l 32,-36 c 6,-6 14,-9 24,-9 h 89 c 5,0 9,-2 14,-5 5,-2 9,-4 12,-4 4,0 7,2 8,5 1,3 1,6 1,9 0,13 -3,23 -11,32 -7,8 -16,15 -26,20 -11,5 -21,8 -32,10 -11,3 -21,4 -29,4 h -13 v 74 h 30 l -26,60 c -7,13 -24,19 -53,19 h -71 c 1,7 2,13 2,21 1,8 1,16 1,23 0,8 -2,15 -6,21 -4,7 -6,13 -7,19 16,0 35,3 55,10 21,7 41,16 59,28 19,12 34,25 46,41 13,16 19,33 19,51 0,22 -6,44 -18,67 -12,22 -28,43 -47,61 -19,18 -40,33 -63,45 -23,11 -46,17 -68,17 -26,0 -51,-8 -74,-24 -22,-15 -43,-34 -61,-57 -19,-23 -35,-46 -48,-71 -14,-25 -26,-46 -34,-64 -5,-8 -11,-16 -16,-23 -6,-7 -12,-14 -17,-19 -5,-6 -10,-11 -13,-15 -4,-4 -6,-8 -6,-11 0,-5 5,-8 14,-8 7,0 14,2 20,5 6,3 12,8 18,12 5,5 12,9 19,14 8,5 16,7 24,7 10,0 23,-2 41,-5 18,-4 35,-9 53,-16 17,-7 32,-16 45,-26 12,-11 19,-22 19,-35 0,-12 -3,-22 -7,-31 -4,-9 -9,-16 -15,-21 -7,-5 -13,-9 -20,-12 -7,-2 -13,-4 -18,-4 h -77 c -10,0 -16,0 -19,-2 -3,-2 -4,-6 -4,-12 0,-3 1,-7 4,-13 2,-6 5,-12 8,-19 4,-6 7,-13 10,-19 4,-7 6,-11 8,-14 z m 11,340 c 0,-16 -4,-29 -12,-42 -8,-12 -19,-23 -32,-32 -14,-8 -29,-15 -47,-20 -17,-5 -35,-7 -53,-7 -7,1 -17,3 -28,5 -11,3 -23,6 -35,9 -12,3 -25,6 -38,8 -14,3 -27,5 -40,6 7,15 16,30 28,46 11,17 24,32 40,47 15,14 33,26 52,35 20,10 41,14 65,14 9,0 19,-2 31,-7 11,-5 22,-11 33,-18 10,-7 19,-15 26,-23 7,-8 10,-15 10,-21 z m 183,-218 c -5,0 -8,-2 -10,-4 -2,-3 -5,-8 -8,-15 -4,-7 -7,-14 -12,-21 -4,-8 -8,-15 -11,-22 -4,-7 -7,-13 -10,-19 -2,-6 -4,-11 -4,-14 0,-7 3,-12 7,-18 5,-6 12,-9 22,-9 h 51 c 10,0 18,3 22,9 5,6 7,11 7,18 0,3 -1,8 -4,14 -2,6 -6,12 -9,19 -4,7 -8,14 -12,22 -4,7 -8,14 -11,21 -3,7 -6,12 -8,15 -2,2 -6,4 -10,4 z m 464,-122 c 0,-3 -1,-8 -2,-14 -1,-5 -3,-11 -5,-18 -3,-6 -6,-12 -9,-19 -4,-6 -8,-12 -12,-17 -6,-5 -10,-8 -14,-11 -4,-3 -6,-6 -6,-8 0,-2 1,-4 2,-7 2,-3 4,-5 5,-6 l 32,-36 c 6,-6 14,-9 24,-9 h 90 c 4,0 9,-2 13,-5 5,-2 9,-4 12,-4 5,0 7,2 8,5 1,3 1,6 1,9 0,13 -3,23 -10,32 -8,8 -16,15 -27,20 -10,5 -21,8 -32,10 -11,3 -21,4 -29,4 h -12 v 74 h 21 l -27,60 c -4,8 -10,13 -19,16 -8,2 -18,3 -29,3 h -71 c 0,3 -1,7 -1,11 -1,4 -1,7 -1,8 0,10 -1,24 -3,40 -2,16 -4,34 -7,53 4,-2 8,-3 14,-4 6,-2 12,-3 20,-5 7,-1 15,-2 23,-2 8,-1 16,-1 23,-1 25,0 46,4 63,13 17,8 30,20 41,35 11,15 19,32 23,51 5,20 7,41 7,63 0,20 -2,39 -8,58 -5,19 -12,36 -22,51 -10,15 -22,28 -36,37 -14,9 -30,13 -47,13 -16,0 -32,-2 -46,-7 -15,-5 -27,-11 -38,-18 -11,-7 -20,-15 -27,-23 -7,-7 -12,-14 -14,-20 -1,5 -4,11 -10,18 -5,8 -13,15 -22,22 -9,7 -19,13 -31,18 -11,4 -23,7 -36,7 -17,0 -34,-3 -50,-11 -16,-7 -30,-17 -42,-30 -12,-14 -22,-30 -29,-48 -8,-19 -11,-40 -11,-63 0,-22 3,-42 10,-62 7,-20 18,-37 31,-53 12,-15 28,-27 45,-36 17,-10 36,-14 56,-14 13,0 27,1 42,3 15,2 25,5 31,7 0,-12 -2,-25 -6,-38 -5,-13 -10,-25 -17,-36 -6,-10 -13,-19 -21,-26 -7,-7 -14,-11 -19,-11 h -71 c -12,0 -19,0 -21,-2 -3,-2 -4,-6 -4,-12 0,-3 1,-8 4,-14 2,-7 5,-14 8,-20 4,-7 7,-13 10,-19 4,-6 6,-10 8,-12 z m -60,251 c -5,0 -11,2 -17,4 -6,2 -12,7 -17,16 -5,8 -10,20 -13,37 -3,16 -5,39 -5,68 0,10 4,19 11,26 7,7 16,13 27,17 10,4 22,7 35,9 13,2 25,3 37,3 23,0 38,-7 46,-21 9,-14 13,-34 13,-63 0,-11 -3,-22 -7,-34 -4,-11 -11,-21 -21,-30 -10,-10 -22,-17 -36,-23 -15,-6 -33,-9 -53,-9 z m -163,-2 c -16,0 -30,3 -41,8 -12,5 -21,12 -29,20 -7,8 -12,17 -16,27 -3,9 -5,19 -5,28 0,12 2,23 6,35 5,11 11,21 19,30 8,9 17,17 28,22 11,6 23,9 37,9 11,0 21,-3 30,-7 9,-4 17,-12 23,-23 6,-12 11,-28 14,-49 4,-22 5,-49 5,-84 -1,-2 -5,-4 -11,-6 -6,-2 -12,-4 -19,-6 -7,-1 -15,-2 -22,-3 -8,-1 -14,-1 -19,-1 z m 453,-127 c -4,0 -7,-2 -10,-4 -2,-3 -5,-8 -8,-15 -3,-7 -7,-14 -11,-21 -4,-8 -8,-15 -12,-22 -3,-7 -6,-13 -9,-19 -3,-6 -4,-11 -4,-14 0,-7 2,-12 7,-18 4,-6 12,-9 22,-9 h 51 c 10,0 17,3 22,9 5,6 7,11 7,18 0,3 -1,8 -4,14 -3,6 -6,12 -10,19 -3,7 -7,14 -11,22 -4,7 -8,14 -11,21 -4,7 -6,12 -9,15 -2,2 -5,4 -10,4 z m 463,-122 c 0,-3 0,-8 -1,-14 -1,-5 -3,-11 -6,-18 -2,-6 -5,-12 -9,-19 -3,-6 -7,-12 -12,-17 -5,-5 -9,-8 -13,-11 -5,-3 -7,-6 -7,-8 0,-2 1,-4 3,-7 2,-3 4,-5 5,-6 l 32,-36 c 6,-6 14,-9 24,-9 h 80 c 5,0 9,-2 14,-5 5,-2 9,-4 12,-4 4,0 7,2 8,5 1,3 1,6 1,9 0,13 -3,23 -10,32 -6,8 -14,15 -23,20 -9,5 -18,8 -29,10 -10,3 -19,4 -27,4 h -13 v 74 h 18 l -28,60 c -5,6 -12,11 -19,14 -8,4 -20,5 -34,5 h -175 c -12,0 -24,5 -36,15 -11,10 -21,21 -30,33 -10,13 -17,26 -22,39 -6,13 -9,23 -9,29 28,-14 53,-24 75,-29 23,-5 43,-7 63,-7 20,0 39,1 55,4 17,3 33,4 49,4 5,0 11,-1 18,-3 7,-2 13,-4 19,-6 6,-3 11,-5 15,-8 4,-2 7,-4 8,-5 4,4 7,10 8,17 2,7 3,12 3,17 0,7 -3,15 -8,22 -6,6 -13,13 -23,18 -9,5 -20,9 -32,13 -11,3 -24,5 -36,5 -15,0 -30,-1 -46,-3 -15,-2 -29,-4 -43,-6 -13,-2 -24,-4 -34,-6 -10,-2 -16,-3 -20,-3 -12,0 -24,1 -35,4 -12,2 -23,7 -33,14 -3,1 -4,3 -5,8 0,4 0,14 0,30 v 31 c 4,-2 11,-3 19,-5 9,-2 19,-3 29,-4 11,-2 23,-3 35,-4 12,-1 24,-2 36,-2 18,0 35,2 53,6 18,4 35,9 51,16 17,6 33,14 48,23 16,9 30,18 43,28 26,19 47,38 63,58 15,20 23,37 23,50 0,4 -3,6 -11,6 -4,0 -15,-5 -33,-16 -17,-10 -39,-22 -66,-35 -26,-13 -56,-25 -89,-35 -33,-10 -67,-16 -103,-16 -45,0 -83,3 -113,8 -30,5 -51,11 -65,18 0,-13 2,-27 8,-42 5,-15 15,-28 31,-39 v -83 c 0,-21 1,-39 3,-54 1,-15 3,-28 6,-40 2,-12 6,-22 11,-32 5,-10 12,-21 19,-33 h -15 c -10,0 -17,0 -19,-2 -3,-2 -5,-6 -5,-12 0,-3 2,-7 4,-13 3,-6 6,-12 9,-19 3,-6 6,-13 10,-19 3,-7 6,-11 7,-14 z m 174,122 c -4,0 -8,-2 -10,-4 -2,-3 -5,-8 -8,-15 -4,-7 -7,-14 -11,-21 -5,-8 -8,-15 -12,-22 -4,-7 -7,-13 -9,-19 -3,-6 -5,-11 -5,-14 0,-7 3,-12 7,-18 5,-6 12,-9 22,-9 h 52 c 9,0 17,3 21,9 5,6 8,11 8,18 0,3 -2,8 -5,14 -2,6 -6,12 -9,19 -4,7 -8,14 -12,22 -4,7 -8,14 -11,21 -3,7 -6,12 -8,15 -2,2 -6,4 -10,4 z m 4051,-122 c 8,0 14,1 18,3 4,3 6,7 6,13 0,10 -1,21 -4,31 -3,10 -6,21 -9,32 -3,11 -6,22 -9,32 -4,11 -6,22 -6,33 v 753 c 0,3 -1,6 -4,10 -3,4 -8,6 -16,6 -4,0 -7,-2 -10,-6 -3,-4 -5,-7 -5,-10 l -39,-746 c 0,-4 -1,-8 -3,-14 -1,-6 -3,-12 -6,-17 -2,-6 -4,-12 -8,-17 -3,-5 -6,-9 -10,-13 v -34 l 24,-56 z m -563,0 -19,60 c -4,12 -11,18 -23,19 -1,0 -3,5 -6,14 -4,8 -8,20 -12,33 -4,13 -8,27 -11,43 -3,15 -5,30 -5,44 0,24 8,42 25,52 17,10 37,15 62,15 16,0 31,-3 42,-9 12,-7 21,-15 29,-24 7,-10 12,-21 16,-34 3,-12 5,-24 5,-37 0,-9 -1,-19 -2,-31 -1,-11 -3,-21 -5,-31 -3,-10 -6,-18 -9,-25 -3,-6 -7,-10 -11,-10 -7,0 -12,-1 -14,-2 -3,-2 -4,-6 -4,-12 0,-3 1,-7 4,-13 2,-6 5,-12 8,-19 4,-6 7,-13 10,-19 4,-7 6,-11 8,-14 h 102 l -21,60 c -1,3 -3,6 -7,8 -3,3 -7,5 -11,7 1,12 2,25 3,39 1,14 2,26 2,37 0,12 -1,23 -4,31 -2,8 -4,18 -7,29 9,0 22,7 38,21 16,15 33,32 50,52 17,20 34,42 50,65 16,22 29,42 39,60 l -19,-230 c -2,-19 -3,-35 -5,-48 -1,-13 -3,-23 -6,-31 -2,-8 -5,-13 -9,-16 -5,-4 -10,-5 -17,-5 h -7 l 37,-79 h 95 c -2,8 -5,18 -8,30 -4,12 -7,25 -11,37 -3,13 -6,26 -8,38 -3,12 -4,21 -4,28 v 345 c 0,3 -1,6 -4,7 -3,2 -6,3 -9,3 -9,0 -15,-3 -21,-10 -16,-19 -35,-40 -58,-62 -23,-21 -46,-41 -67,-60 -22,-18 -41,-34 -58,-47 -17,-12 -27,-19 -30,-20 -5,6 -11,13 -17,21 -7,8 -14,16 -22,23 -8,8 -17,14 -27,19 -10,4 -22,7 -34,7 -19,0 -36,-2 -53,-7 -17,-4 -33,-11 -47,-22 -13,-10 -24,-24 -33,-42 -8,-17 -12,-39 -12,-65 0,-14 1,-28 4,-40 3,-13 6,-25 10,-37 4,-12 9,-24 13,-35 5,-11 8,-22 12,-32 -12,0 -21,0 -27,-2 -7,-2 -10,-6 -10,-12 0,-3 1,-7 3,-13 3,-6 6,-12 9,-19 3,-6 7,-13 10,-19 3,-7 6,-11 7,-14 z m -227,122 c -4,0 -8,-2 -10,-4 -2,-3 -5,-8 -8,-15 -4,-7 -7,-14 -11,-21 -5,-8 -9,-15 -12,-22 -4,-7 -7,-13 -9,-19 -3,-6 -5,-11 -5,-14 0,-7 3,-12 7,-18 5,-6 12,-9 22,-9 h 52 c 9,0 17,3 21,9 5,6 7,11 7,18 0,3 -1,8 -4,14 -2,6 -6,12 -9,19 -4,7 -8,14 -12,22 -4,7 -8,14 -11,21 -3,7 -6,12 -8,15 -2,2 -6,4 -10,4 z m -91,-122 -22,60 c -5,11 -15,17 -32,19 9,11 16,26 20,45 3,19 5,37 5,55 0,7 -2,16 -7,27 -4,11 -10,21 -17,31 -7,10 -15,18 -24,26 -8,8 -17,14 -26,17 9,2 18,7 27,16 9,10 18,22 26,36 8,15 15,31 22,48 7,17 13,34 18,51 5,17 9,33 11,48 3,15 5,27 5,35 0,9 -4,13 -11,13 -7,0 -14,-7 -23,-20 -7,-11 -15,-26 -24,-45 -9,-18 -20,-37 -33,-55 -12,-18 -27,-34 -45,-47 -18,-13 -39,-20 -63,-20 -6,0 -13,1 -20,4 -8,3 -15,6 -23,10 -8,4 -16,8 -24,13 -8,4 -15,9 -21,12 0,-18 4,-37 10,-56 7,-20 17,-36 29,-47 10,-9 22,-14 34,-16 13,-1 27,-2 43,-2 5,0 10,0 17,1 7,1 12,1 14,2 8,-6 16,-16 23,-29 7,-12 11,-30 11,-53 0,-12 -2,-25 -6,-37 -4,-12 -10,-22 -17,-31 -7,-10 -16,-17 -26,-23 -11,-6 -22,-9 -34,-9 h -92 c -11,0 -22,4 -34,11 -12,7 -23,16 -33,27 -10,11 -18,23 -24,37 -7,14 -10,28 -10,41 0,16 1,28 4,36 3,9 6,16 9,22 3,7 6,13 9,20 3,7 4,17 4,29 0,8 -1,17 -4,28 -3,10 -6,19 -10,28 -4,8 -8,15 -13,21 -4,6 -9,9 -13,9 -5,0 -8,-1 -8,-3 0,-1 0,-2 1,-3 0,-1 1,-2 1,-3 0,-13 -2,-25 -7,-37 -4,-11 -9,-21 -15,-32 -5,-11 -10,-22 -15,-33 -4,-12 -6,-24 -6,-39 0,-23 1,-42 3,-58 2,-16 4,-30 8,-42 4,-13 9,-24 15,-35 6,-11 14,-22 22,-35 3,-5 8,-11 16,-19 7,-7 16,-15 25,-22 10,-7 20,-14 29,-19 10,-5 18,-8 26,-8 z m -529,122 c -5,0 -8,-2 -10,-4 -2,-3 -5,-8 -9,-15 -3,-7 -7,-14 -11,-21 -4,-8 -8,-15 -11,-22 -4,-7 -7,-13 -10,-19 -3,-6 -4,-11 -4,-14 0,-7 2,-12 7,-18 5,-6 12,-9 22,-9 h 51 c 10,0 18,3 22,9 5,6 7,11 7,18 0,3 -1,8 -4,14 -3,6 -6,12 -9,19 -4,7 -8,14 -12,22 -4,7 -8,14 -11,21 -3,7 -6,12 -8,15 -3,2 -6,4 -10,4 z m -118,-122 c -1,11 -3,23 -6,36 -4,14 -7,27 -11,40 -3,13 -7,25 -10,36 -3,12 -4,21 -4,28 v 326 c 0,13 -3,19 -9,19 -4,0 -14,-6 -31,-19 -11,-9 -28,-18 -49,-26 -21,-8 -44,-16 -69,-22 -25,-6 -50,-11 -75,-15 -25,-4 -47,-6 -66,-6 -5,0 -12,0 -22,0 -9,1 -19,1 -30,2 -11,1 -22,2 -34,4 -11,1 -22,4 -33,6 0,-20 4,-36 12,-49 8,-12 17,-21 29,-28 12,-6 26,-10 41,-11 15,-2 30,-3 45,-3 16,0 37,3 61,9 25,6 50,14 74,24 25,9 48,19 69,30 22,11 37,22 47,32 l -11,-125 c -16,-14 -50,-26 -104,-35 -54,-10 -129,-15 -225,-15 -5,0 -8,-2 -8,-6 0,-3 1,-8 2,-14 l 28,-59 c 42,0 81,2 115,6 34,5 64,10 89,17 26,7 47,14 64,22 17,9 29,16 36,24 0,-4 -1,-11 -2,-20 -1,-8 -2,-18 -4,-29 -1,-11 -3,-23 -6,-34 -2,-12 -5,-22 -8,-32 -3,-10 -5,-18 -8,-24 -4,-6 -7,-10 -10,-10 h -282 c -10,0 -16,0 -19,-2 -3,-2 -4,-6 -4,-12 0,-4 1,-8 3,-13 2,-4 4,-9 7,-13 l 20,-39 z m -536,122 c -4,0 -7,-2 -9,-4 -3,-3 -5,-8 -9,-15 -3,-7 -7,-14 -11,-21 -4,-8 -8,-15 -11,-22 -4,-7 -7,-13 -10,-19 -3,-6 -4,-11 -4,-14 0,-7 2,-12 7,-18 5,-6 12,-9 22,-9 h 51 c 10,0 17,3 22,9 5,6 7,11 7,18 0,3 -1,8 -4,14 -3,6 -6,12 -10,19 -3,7 -7,14 -11,22 -4,7 -8,14 -11,21 -4,7 -6,12 -9,15 -2,2 -5,4 -10,4 z m -439,153 c 0,13 3,23 9,31 6,8 13,14 22,19 9,4 18,8 28,10 9,1 18,2 26,2 11,0 21,-1 29,-3 7,-3 14,-6 20,-11 6,-5 11,-12 15,-19 5,-7 9,-16 14,-26 -7,-14 -19,-25 -34,-34 -15,-8 -30,-12 -43,-12 -10,0 -19,0 -29,1 -10,1 -19,3 -28,6 -8,3 -15,7 -20,13 -6,6 -9,13 -9,23 z m 288,-275 -20,40 c 1,0 3,3 6,8 3,6 6,12 10,19 3,8 6,16 9,24 3,8 4,15 4,21 0,9 -1,17 -5,24 -3,7 -7,14 -11,21 -5,7 -10,14 -15,21 -6,7 -11,15 -15,23 l -17,29 c 12,18 22,38 29,61 7,22 13,45 17,69 5,23 7,47 9,71 1,24 2,46 2,67 v 402 c 0,5 -2,8 -6,10 -5,2 -9,3 -14,3 -1,0 -3,-1 -4,-3 -2,-2 -3,-5 -4,-10 l -24,-374 c -1,-14 -2,-31 -5,-50 -2,-19 -6,-38 -10,-58 -5,-19 -10,-39 -16,-57 -7,-18 -14,-34 -22,-48 -4,9 -10,18 -17,28 -7,10 -15,19 -23,27 -8,8 -18,15 -28,21 -10,6 -21,9 -33,9 -16,0 -32,-4 -46,-11 -15,-8 -29,-17 -40,-29 -12,-12 -21,-26 -28,-42 -7,-15 -10,-31 -10,-48 0,-15 3,-29 10,-44 7,-14 16,-27 28,-38 11,-12 24,-21 39,-27 14,-7 29,-11 43,-11 15,0 29,2 42,6 13,4 25,8 36,14 11,5 21,11 29,17 8,6 14,10 18,14 2,-5 5,-11 8,-17 3,-7 5,-15 5,-24 0,-21 -4,-39 -10,-55 -7,-16 -18,-24 -34,-24 h -209 c -27,13 -49,34 -67,63 -18,29 -27,64 -27,105 0,21 2,38 9,50 6,11 12,22 20,31 7,10 14,20 20,31 7,11 10,26 10,45 0,9 -2,17 -7,26 -5,8 -11,16 -18,23 -6,7 -13,12 -20,17 -6,4 -11,6 -14,6 -2,0 -4,0 -6,-2 -3,-1 -4,-3 -4,-6 0,-3 2,-6 5,-10 3,-4 5,-8 5,-11 0,-19 -4,-33 -10,-43 -6,-10 -13,-20 -21,-30 -7,-10 -14,-22 -20,-35 -6,-14 -9,-33 -9,-58 0,-36 5,-69 16,-100 11,-31 25,-59 41,-83 15,-25 32,-45 49,-62 17,-17 31,-29 43,-36 z m -1079,0 c 8,0 14,1 18,3 4,3 6,7 6,13 0,10 -1,21 -4,31 -3,10 -6,21 -9,32 -3,11 -6,22 -10,32 -3,11 -5,22 -5,33 v 753 c 0,3 -1,6 -4,10 -3,4 -8,6 -16,6 -4,0 -7,-2 -10,-6 -3,-4 -5,-7 -5,-10 l -39,-746 c 0,-4 -1,-8 -3,-14 -1,-6 -3,-12 -6,-17 -2,-6 -5,-12 -8,-17 -3,-5 -6,-9 -10,-13 v -34 l 23,-56 z m -420,0 -17,33 c 5,3 11,8 16,15 6,6 11,13 15,20 4,7 7,14 10,21 2,8 4,14 4,19 0,9 -2,19 -5,29 -2,10 -6,20 -10,29 -3,9 -7,17 -12,24 -4,7 -7,12 -9,14 8,0 19,1 32,1 13,0 28,0 42,0 15,0 30,0 45,1 16,0 29,0 42,1 -1,-21 -3,-42 -6,-64 -2,-21 -6,-42 -11,-64 -5,-4 -12,-9 -20,-12 -8,-3 -12,-6 -12,-9 0,-2 1,-4 3,-7 2,-2 4,-4 5,-5 l 32,-37 c 6,-6 14,-9 24,-9 h 37 c 10,0 19,-1 27,-2 9,-2 17,-6 25,-14 2,-2 7,-5 12,-7 6,-3 10,-4 13,-4 5,0 7,2 8,6 1,4 1,8 1,11 0,12 -3,23 -8,33 -6,10 -13,19 -22,25 -9,7 -18,13 -28,17 -10,4 -19,6 -27,7 3,8 5,18 6,29 0,12 1,22 1,31 v 415 c 0,3 -1,7 -4,12 -2,4 -4,7 -7,7 -5,0 -9,-1 -13,-4 -4,-2 -7,-4 -8,-6 -12,-15 -28,-28 -48,-42 -20,-13 -42,-24 -66,-34 -24,-10 -49,-18 -75,-24 -27,-6 -52,-9 -75,-9 -6,0 -13,0 -21,1 -8,1 -16,2 -25,3 -8,2 -16,3 -23,5 -8,1 -14,3 -18,5 0,-3 0,-8 1,-16 1,-9 3,-17 6,-27 4,-9 9,-18 15,-27 7,-9 16,-15 28,-19 0,-14 3,-31 10,-49 7,-19 15,-35 26,-48 h -16 c -13,0 -19,-4 -19,-11 0,-2 1,-6 4,-13 2,-6 5,-13 9,-20 4,-7 8,-13 12,-18 5,-6 10,-9 14,-9 h 29 c 3,-3 6,-8 9,-15 2,-7 4,-15 6,-23 1,-7 3,-15 4,-22 0,-7 1,-12 1,-16 0,-6 -2,-13 -4,-19 -3,-6 -6,-11 -10,-15 -4,-5 -8,-8 -12,-11 -4,-2 -8,-4 -10,-4 h -35 c -22,0 -39,3 -51,8 -12,6 -21,12 -27,18 -5,7 -9,13 -10,20 -1,7 -2,11 -2,14 0,17 2,29 5,37 4,8 7,15 12,21 4,5 7,11 11,16 3,6 5,14 5,25 0,9 -2,17 -6,26 -5,9 -10,17 -15,24 -6,8 -11,14 -17,18 -6,5 -11,7 -14,7 -3,0 -6,-1 -8,-2 -3,-2 -4,-4 -4,-6 0,-3 1,-7 3,-12 2,-4 4,-10 4,-15 0,-6 -2,-11 -5,-17 -3,-6 -6,-13 -10,-21 -4,-8 -8,-17 -11,-29 -3,-12 -4,-26 -4,-42 0,-19 3,-38 10,-58 7,-20 17,-38 29,-55 12,-16 28,-30 46,-40 18,-11 37,-16 59,-16 z m -22,274 c -4,0 -8,1 -10,3 -2,2 -4,4 -7,8 -5,4 -11,11 -16,19 -6,8 -11,16 -16,24 -4,8 -8,16 -11,23 -3,7 -5,12 -5,16 24,0 49,4 74,11 25,6 49,16 71,27 23,12 45,25 65,40 19,15 36,30 50,45 l -13,-216 z"
     class="fil0" /><path
     style="fill:#373435"
     inkscape:connector-curvature="0"
     id="path11"
     d="m 1025,3460.8346 c -5,0 -8,-1 -10,-4 -2,-3 -5,-8 -8,-15 -4,-6 -8,-13 -12,-21 -4,-7 -8,-14 -11,-21 -4,-7 -7,-14 -10,-20 -2,-6 -4,-10 -4,-14 0,-6 3,-12 7,-18 5,-5 12,-8 22,-8 h 51 c 10,0 18,3 22,8 5,6 7,12 7,18 0,4 -1,8 -4,14 -3,6 -6,13 -9,20 -4,7 -8,14 -12,21 -4,8 -8,15 -11,21 -3,7 -6,12 -8,15 -2,3 -6,4 -10,4 z m -109,-121 -26,59 c -6,13 -24,20 -53,20 h -85 c 3,3 5,9 6,20 1,10 2,21 2,35 0,17 0,33 -2,47 -1,14 -3,29 -6,44 32,6 61,18 86,35 24,17 45,35 63,56 17,21 32,43 44,67 12,23 21,44 29,63 7,19 12,36 14,49 3,13 4,21 4,22 0,3 0,6 -2,10 -1,3 -4,5 -8,5 -5,0 -9,-1 -13,-5 -4,-3 -6,-7 -9,-10 -12,-24 -28,-48 -48,-75 -20,-26 -43,-50 -71,-72 -28,-22 -60,-40 -95,-55 -36,-14 -75,-22 -119,-22 -10,0 -23,1 -37,4 -15,3 -29,5 -44,9 -14,4 -28,8 -41,12 -12,4 -22,7 -28,10 0,-23 4,-42 12,-57 9,-15 20,-28 34,-38 14,-9 31,-16 49,-20 19,-4 38,-7 58,-7 15,0 29,1 43,2 14,1 27,3 39,7 v -37 c 0,-11 -2,-23 -7,-34 -5,-12 -11,-23 -19,-32 -7,-10 -15,-18 -24,-24 -9,-6 -17,-9 -24,-9 h -82 c -10,0 -16,-1 -19,-2 -3,-2 -4,-6 -4,-13 0,-2 1,-6 4,-12 3,-6 6,-13 9,-19 3,-7 7,-13 10,-20 3,-6 6,-11 7,-13 z m 498,0 -19,39 c 5,3 10,7 13,14 4,6 8,14 10,24 3,9 5,19 7,30 2,11 2,23 2,34 0,17 -3,35 -11,53 -7,19 -20,37 -38,55 22,2 43,9 62,20 20,11 38,24 55,39 17,15 33,31 47,48 13,17 25,33 35,48 l -18,-226 c -2,-18 -3,-34 -5,-47 -1,-13 -3,-24 -5,-31 -3,-8 -6,-13 -10,-17 -4,-3 -10,-5 -16,-5 h -8 l 37,-78 h 93 c -2,7 -5,17 -8,30 -4,12 -7,24 -10,37 -3,13 -5,26 -8,37 -2,12 -3,22 -3,29 v 329 c 0,9 -4,14 -11,14 -5,0 -11,-2 -17,-5 -7,-3 -14,-9 -22,-17 -12,-12 -26,-25 -42,-40 -16,-15 -34,-29 -53,-42 -20,-13 -41,-24 -65,-32 -23,-9 -48,-13 -75,-13 -13,0 -24,1 -32,2 -9,1 -16,2 -22,3 -6,2 -11,3 -16,5 0,-12 2,-23 4,-33 2,-11 7,-21 12,-29 6,-8 14,-15 23,-20 10,-5 22,-7 36,-7 11,-10 19,-23 24,-41 4,-18 6,-36 6,-54 0,-7 -1,-15 -2,-24 -2,-9 -6,-17 -11,-25 -6,-7 -15,-13 -26,-18 -12,-4 -27,-7 -47,-7 -34,0 -60,7 -76,20 -16,13 -24,30 -24,50 0,13 2,24 5,34 4,11 7,21 11,31 3,10 7,21 10,32 3,10 5,22 5,34 0,8 -2,18 -6,28 -4,10 -8,19 -14,28 -5,9 -10,16 -16,22 -6,6 -11,9 -15,9 -3,0 -5,-1 -6,-2 -1,-2 -2,-3 -2,-4 0,-1 0,-2 1,-3 1,-1 1,-2 1,-4 0,-13 -2,-25 -6,-35 -3,-10 -7,-20 -11,-30 -4,-10 -8,-20 -11,-31 -4,-11 -5,-23 -5,-37 0,-24 3,-48 8,-74 6,-25 15,-49 27,-71 12,-22 27,-40 46,-55 19,-14 42,-21 68,-21 z m 384,121 c -4,0 -8,-1 -10,-4 -2,-3 -5,-8 -8,-15 -4,-6 -7,-13 -11,-21 -5,-7 -8,-14 -12,-21 -4,-7 -7,-14 -9,-20 -3,-6 -5,-10 -5,-14 0,-6 3,-12 7,-18 5,-5 12,-8 22,-8 h 52 c 9,0 17,3 21,8 5,6 8,12 8,18 0,4 -2,8 -5,14 -2,6 -6,13 -9,20 -4,7 -8,14 -12,21 -4,8 -8,15 -11,21 -3,7 -6,12 -8,15 -2,3 -6,4 -10,4 z m 516,-121 c -5,23 -8,47 -9,72 -1,25 -2,47 -2,67 v 757 c 0,4 -1,8 -3,12 -2,3 -7,5 -14,5 -5,0 -8,-2 -9,-4 -1,-3 -3,-7 -4,-13 -1,-9 -3,-27 -5,-52 -3,-25 -5,-56 -8,-91 -2,-35 -4,-74 -7,-116 -2,-42 -5,-85 -8,-127 -3,-43 -5,-85 -8,-125 -2,-40 -4,-76 -7,-107 -6,6 -13,13 -22,20 -8,7 -17,14 -27,20 -10,6 -19,11 -29,15 -10,4 -20,7 -28,7 -41,0 -73,-8 -95,-23 -22,-15 -37,-37 -47,-67 l 5,133 c 2,5 4,11 6,21 2,9 3,18 4,28 1,10 1,20 1,28 1,9 1,16 1,20 0,2 -1,4 -2,6 -2,2 -5,2 -10,2 -4,0 -8,-1 -11,-2 -2,-2 -4,-4 -5,-6 -9,-12 -17,-25 -26,-39 -9,-14 -19,-27 -30,-39 -11,-13 -25,-23 -40,-31 -15,-8 -33,-12 -54,-12 -7,0 -14,1 -19,2 -6,2 -13,4 -21,8 0,-4 2,-12 4,-23 3,-11 6,-22 11,-34 4,-11 10,-22 16,-31 6,-9 12,-13 19,-13 13,0 27,4 40,12 14,8 27,17 39,27 11,10 21,18 28,26 8,8 11,12 11,11 0,-7 -1,-18 -3,-33 -1,-16 -2,-32 -4,-50 -1,-18 -2,-34 -4,-50 -1,-15 -1,-26 -1,-33 0,-18 4,-38 11,-60 8,-22 19,-43 33,-62 14,-19 31,-34 50,-47 20,-13 42,-19 66,-19 11,0 22,0 33,1 11,1 22,2 33,5 11,2 22,5 32,8 10,4 18,8 26,14 l -2,-27 z m -199,68 c -33,0 -59,8 -77,24 -18,16 -27,41 -27,74 0,16 4,32 10,45 7,13 15,25 26,35 10,10 22,18 34,23 13,6 25,9 36,9 14,0 27,-3 38,-9 12,-5 23,-13 32,-22 8,-10 15,-22 20,-35 5,-13 7,-28 7,-44 0,-33 -9,-58 -27,-74 -19,-17 -43,-26 -72,-26 z m 361,53 c -4,0 -8,-1 -10,-4 -2,-3 -5,-8 -8,-15 -4,-6 -7,-13 -11,-21 -4,-7 -8,-14 -12,-21 -4,-7 -7,-14 -9,-20 -3,-6 -5,-10 -5,-14 0,-6 3,-12 7,-18 5,-5 12,-8 22,-8 h 52 c 10,0 17,3 22,8 4,6 7,12 7,18 0,4 -2,8 -5,14 -2,6 -6,13 -9,20 -4,7 -8,14 -12,21 -4,8 -8,15 -11,21 -3,7 -6,12 -8,15 -2,3 -6,4 -10,4 z m 402,-121 -28,59 c -2,6 -6,11 -10,15 -4,3 -11,5 -22,5 h -17 c 35,37 68,77 101,121 32,45 65,97 98,157 l -14,-179 c -3,-38 -7,-64 -14,-78 -6,-14 -13,-21 -22,-21 h -6 l 36,-79 h 95 c -3,9 -5,20 -8,33 -3,13 -6,26 -9,40 -3,13 -6,26 -8,38 -3,12 -4,21 -4,29 v 319 c 0,4 -1,6 -5,8 -4,2 -7,2 -11,2 -2,0 -5,-1 -8,-4 -4,-3 -10,-10 -19,-21 -8,-11 -20,-26 -34,-45 -15,-19 -31,-39 -49,-62 -18,-22 -36,-45 -55,-68 -20,-23 -39,-45 -58,-65 -18,-20 -36,-37 -52,-52 -16,-15 -30,-25 -42,-30 -7,4 -15,8 -23,13 -8,5 -16,11 -23,18 -7,7 -12,15 -17,25 -5,10 -8,22 -10,36 20,0 38,4 55,11 18,8 34,18 49,30 15,12 28,26 40,40 12,14 22,28 30,42 8,14 15,26 20,37 4,11 7,19 7,24 0,2 -1,4 -3,7 -2,2 -4,3 -8,3 -5,0 -8,-1 -11,-3 -3,-2 -6,-4 -9,-7 -18,-15 -35,-29 -49,-42 -15,-13 -29,-24 -44,-33 -15,-9 -30,-17 -46,-21 -16,-5 -34,-8 -55,-8 -12,0 -23,1 -34,4 -11,3 -23,5 -35,6 0,-2 0,-6 1,-14 1,-8 3,-17 7,-27 3,-10 9,-19 16,-28 7,-9 17,-16 30,-20 0,-16 1,-30 4,-43 2,-12 6,-24 11,-34 6,-10 13,-20 21,-29 8,-9 18,-19 29,-30 h -38 c -10,0 -16,-1 -19,-2 -3,-2 -4,-6 -4,-13 0,-2 1,-6 4,-12 2,-6 5,-13 8,-19 4,-7 7,-13 10,-20 3,-6 6,-11 8,-13 z m 372,0 c 7,0 13,1 18,3 4,2 6,6 6,12 0,11 -2,21 -5,32 -3,10 -6,20 -8,31 -3,11 -6,22 -10,33 -4,11 -5,22 -5,33 v 753 c 0,3 -2,6 -5,10 -2,4 -8,6 -15,6 -4,0 -8,-2 -10,-6 -4,-4 -5,-7 -5,-10 l -40,-747 c 0,-3 -1,-8 -2,-13 -2,-6 -4,-12 -6,-18 -2,-6 -5,-11 -8,-16 -4,-6 -7,-10 -10,-13 v -34 l 23,-56 z m 1044,0 -27,59 c -6,13 -24,20 -53,20 h -129 c -19,4 -38,12 -57,24 -19,11 -36,24 -51,38 -15,14 -28,28 -37,44 -10,15 -15,28 -15,40 13,1 28,4 44,8 17,5 31,11 42,20 10,-16 19,-29 28,-40 9,-10 17,-19 26,-26 9,-8 19,-13 30,-16 11,-3 23,-5 38,-5 23,0 46,4 68,12 22,8 41,19 58,33 17,14 31,31 41,50 10,20 15,41 15,64 0,17 -3,37 -11,60 -7,24 -17,49 -30,76 -13,27 -27,55 -44,85 -16,29 -33,59 -51,88 -18,30 -36,59 -54,86 -17,28 -34,54 -49,77 -16,24 -29,44 -41,62 -12,17 -21,31 -26,40 -2,4 -5,7 -9,10 -3,2 -8,4 -14,4 -5,0 -8,-1 -9,-4 -1,-2 -1,-4 -1,-7 l 1,-3 c 4,-13 14,-34 28,-62 15,-28 32,-59 51,-94 18,-35 38,-72 59,-111 20,-39 39,-76 56,-111 18,-36 32,-68 43,-96 11,-28 16,-50 16,-64 0,-17 0,-32 -2,-46 -1,-14 -5,-26 -12,-36 -6,-10 -17,-17 -31,-23 -14,-5 -34,-8 -60,-8 -15,0 -29,2 -44,6 -15,5 -30,13 -43,24 11,7 20,16 29,27 8,11 15,22 21,35 6,12 12,24 16,36 5,11 10,22 14,32 0,2 -1,4 -2,6 -1,2 -4,3 -10,3 -3,0 -5,-1 -8,-2 -3,-1 -5,-3 -7,-6 -34,-35 -67,-62 -100,-81 -33,-19 -68,-29 -106,-29 -6,0 -14,1 -25,2 -10,1 -19,3 -25,5 0,-10 2,-20 6,-30 3,-9 7,-18 12,-25 5,-8 10,-14 15,-18 5,-5 9,-8 13,-8 0,-10 1,-22 5,-35 3,-13 8,-26 14,-39 6,-14 13,-27 21,-39 8,-13 17,-24 27,-33 h -25 c -10,0 -16,-1 -19,-2 -3,-2 -4,-6 -4,-13 0,-4 1,-8 3,-12 1,-5 4,-9 7,-13 l 19,-39 z m 136,121 c -4,0 -7,-1 -9,-4 -3,-3 -5,-8 -9,-15 -3,-6 -7,-13 -11,-21 -4,-7 -8,-14 -11,-21 -4,-7 -7,-14 -10,-20 -3,-6 -4,-10 -4,-14 0,-6 2,-12 7,-18 5,-5 12,-8 22,-8 h 51 c 10,0 17,3 22,8 5,6 7,12 7,18 0,4 -1,8 -4,14 -3,6 -6,13 -10,20 -3,7 -7,14 -11,21 -4,8 -8,15 -11,21 -4,7 -6,12 -9,15 -2,3 -5,4 -10,4 z m 464,-121 -20,59 c -3,6 -5,11 -6,15 -2,3 -7,5 -15,5 h -21 c 8,12 16,22 24,32 7,10 15,19 22,30 8,10 15,21 23,34 8,12 16,27 25,44 5,11 11,24 18,40 7,15 14,31 22,47 7,17 15,33 22,49 7,16 14,31 20,44 l -22,-221 c -2,-19 -5,-35 -7,-48 -3,-12 -6,-23 -9,-30 -4,-8 -7,-13 -11,-16 -4,-3 -8,-5 -13,-5 h -5 l 35,-79 h 94 c -1,9 -4,20 -7,32 -3,12 -7,24 -9,37 -4,12 -6,24 -8,35 -3,11 -4,20 -4,27 v 326 c 0,3 -1,7 -3,12 -3,4 -6,6 -11,6 -4,0 -8,-2 -12,-7 -5,-4 -8,-8 -11,-11 -19,-25 -38,-50 -55,-76 -17,-27 -35,-54 -53,-81 -18,-28 -38,-57 -58,-87 -20,-29 -43,-60 -68,-91 -3,1 -7,5 -13,10 -5,6 -10,13 -15,20 -5,6 -9,13 -13,20 -4,7 -6,12 -6,15 3,-1 6,-2 9,-2 3,-1 6,-1 8,-1 9,0 17,4 25,11 8,7 14,16 20,27 5,11 9,23 12,36 3,13 4,25 4,37 0,11 -3,24 -9,38 -7,15 -16,29 -28,42 -11,13 -25,25 -40,34 -15,9 -31,14 -48,14 -14,0 -29,-3 -45,-8 -17,-6 -32,-15 -46,-28 -14,-14 -25,-31 -35,-53 -9,-22 -14,-50 -14,-83 0,-30 4,-59 10,-89 7,-30 14,-57 20,-83 h -9 c -10,0 -16,-1 -19,-2 -3,-2 -4,-6 -4,-13 0,-2 1,-6 3,-12 3,-6 6,-13 9,-19 3,-7 7,-13 10,-20 3,-6 6,-11 7,-13 h 116 l -22,59 c -1,4 -2,6 -3,9 -1,3 -2,4 -4,6 -1,2 -4,3 -7,4 -4,1 -8,1 -14,1 -5,6 -10,14 -15,24 -5,10 -10,21 -14,33 -4,12 -7,24 -10,37 -3,13 -4,25 -4,37 0,15 1,31 4,47 3,17 8,33 15,47 8,14 18,26 32,36 14,9 32,14 55,14 40,0 61,-17 61,-52 0,-5 -1,-10 -3,-16 -1,-6 -4,-11 -7,-16 -3,-5 -8,-9 -13,-12 -6,-4 -12,-5 -19,-5 -16,0 -27,1 -34,5 -7,3 -12,5 -14,5 -3,0 -5,-2 -5,-4 -1,-3 -1,-5 -1,-6 0,-5 3,-16 10,-32 7,-17 15,-35 25,-54 9,-20 19,-38 29,-54 11,-17 20,-28 27,-34 h -23 c -9,0 -16,-1 -18,-2 -3,-2 -5,-6 -5,-13 0,-2 2,-6 5,-12 2,-6 5,-13 9,-19 3,-7 6,-13 9,-20 4,-6 6,-11 8,-13 z m 352,0 c 7,0 13,1 17,3 5,2 7,6 7,12 0,11 -2,21 -5,32 -3,10 -6,20 -9,31 -2,11 -6,22 -9,33 -4,11 -6,22 -6,33 v 753 c 0,3 -1,6 -4,10 -2,4 -8,6 -15,6 -4,0 -8,-2 -11,-6 -3,-4 -4,-7 -4,-10 l -40,-747 c 0,-3 -1,-8 -2,-13 -2,-6 -4,-12 -6,-18 -2,-6 -5,-11 -8,-16 -4,-6 -7,-10 -10,-13 v -34 l 23,-56 z m 1490,0 -20,59 c -2,6 -4,11 -6,15 -2,3 -7,5 -15,5 h -21 c 8,12 17,22 24,32 7,10 15,19 22,30 8,10 15,21 23,34 8,12 16,27 25,44 5,11 11,24 18,40 7,15 14,31 22,47 7,17 15,33 22,49 7,16 14,31 20,44 l -22,-221 c -2,-19 -5,-35 -7,-48 -3,-12 -6,-23 -9,-30 -4,-8 -7,-13 -11,-16 -4,-3 -8,-5 -13,-5 h -4 l 34,-79 h 95 c -2,9 -5,20 -8,32 -3,12 -6,24 -9,37 -4,12 -6,24 -8,35 -3,11 -4,20 -4,27 v 326 c 0,3 -1,7 -3,12 -3,4 -6,6 -11,6 -4,0 -8,-2 -12,-7 -4,-4 -8,-8 -11,-11 -19,-25 -38,-50 -55,-76 -17,-27 -35,-54 -53,-81 -18,-28 -38,-57 -58,-87 -20,-29 -43,-60 -68,-91 -3,1 -7,5 -13,10 -5,6 -10,13 -15,20 -5,6 -9,13 -13,20 -4,7 -6,12 -6,15 3,-1 6,-2 9,-2 3,-1 6,-1 8,-1 9,0 18,4 25,11 8,7 14,16 20,27 5,11 9,23 12,36 3,13 5,25 5,37 0,11 -4,24 -10,38 -7,15 -16,29 -28,42 -11,13 -25,25 -40,34 -15,9 -31,14 -48,14 -14,0 -29,-3 -45,-8 -16,-6 -32,-15 -46,-28 -14,-14 -25,-31 -35,-53 -9,-22 -14,-50 -14,-83 0,-30 4,-59 11,-89 6,-30 13,-57 19,-83 h -9 c -10,0 -16,-1 -19,-2 -3,-2 -4,-6 -4,-13 0,-2 1,-6 3,-12 3,-6 6,-13 9,-19 3,-7 7,-13 10,-20 3,-6 6,-11 7,-13 h 116 l -22,59 c -1,4 -2,6 -3,9 -1,3 -2,4 -4,6 -1,2 -4,3 -7,4 -3,1 -8,1 -14,1 -5,6 -10,14 -15,24 -5,10 -10,21 -14,33 -4,12 -7,24 -10,37 -3,13 -4,25 -4,37 0,15 1,31 4,47 3,17 8,33 15,47 8,14 18,26 32,36 14,9 32,14 55,14 40,0 61,-17 61,-52 0,-5 -1,-10 -3,-16 -1,-6 -4,-11 -7,-16 -3,-5 -8,-9 -13,-12 -6,-4 -12,-5 -19,-5 -16,0 -27,1 -34,5 -7,3 -12,5 -14,5 -3,0 -5,-2 -5,-4 -1,-3 -1,-5 -1,-6 0,-5 3,-16 10,-32 7,-17 15,-35 25,-54 9,-20 19,-38 29,-54 11,-17 20,-28 27,-34 h -23 c -9,0 -16,-1 -18,-2 -3,-2 -5,-6 -5,-13 0,-2 2,-6 5,-12 2,-6 5,-13 9,-19 3,-7 6,-13 9,-20 4,-6 6,-11 8,-13 z m -174,-349 c 23,0 47,10 72,31 25,21 51,47 77,79 26,31 52,65 77,101 26,36 50,69 73,100 0,4 -2,6 -5,8 -4,1 -7,2 -10,2 -6,0 -15,-6 -28,-18 -12,-12 -27,-27 -45,-45 -17,-18 -36,-37 -57,-58 -21,-21 -42,-40 -65,-58 -23,-18 -46,-33 -70,-45 -23,-12 -46,-18 -69,-18 -5,0 -11,1 -18,4 -7,2 -13,5 -19,9 -6,4 -11,9 -15,15 -4,6 -6,12 -6,19 0,6 1,13 3,19 2,7 5,13 9,19 5,6 11,11 19,14 8,4 17,6 29,6 10,0 20,-1 27,-5 8,-3 14,-6 20,-10 5,-4 9,-7 13,-10 3,-4 5,-5 7,-5 2,0 4,1 5,2 0,2 1,4 1,5 0,15 -3,28 -9,41 -6,12 -13,22 -23,31 -9,9 -20,16 -32,21 -11,5 -23,7 -35,7 -11,0 -22,-2 -32,-7 -11,-5 -21,-12 -29,-20 -8,-8 -15,-17 -20,-27 -5,-11 -8,-22 -8,-33 0,-28 7,-54 20,-76 13,-22 29,-40 47,-54 18,-15 36,-26 54,-33 18,-7 32,-11 42,-11 z m 471,470 c -4,0 -8,-1 -10,-4 -2,-3 -5,-8 -8,-15 -3,-6 -7,-13 -11,-21 -4,-7 -8,-14 -12,-21 -3,-7 -7,-14 -9,-20 -3,-6 -4,-10 -4,-14 0,-6 2,-12 7,-18 4,-5 12,-8 21,-8 h 52 c 10,0 17,3 22,8 4,6 7,12 7,18 0,4 -2,8 -4,14 -3,6 -6,13 -10,20 -3,7 -7,14 -12,21 -4,8 -7,15 -11,21 -3,7 -6,12 -8,15 -2,3 -5,4 -10,4 z m 695,507 c 0,22 -4,42 -13,60 -9,18 -21,35 -35,48 -15,14 -31,25 -49,33 -18,7 -36,11 -54,11 -21,0 -42,-4 -61,-13 -19,-9 -38,-22 -58,-37 -18,-16 -38,-33 -57,-53 -20,-20 -41,-40 -64,-61 -22,-21 -46,-42 -72,-63 -26,-21 -55,-40 -87,-58 -5,-3 -8,-6 -12,-9 -3,-3 -5,-7 -5,-12 0,-2 2,-5 4,-6 2,-2 5,-3 7,-3 9,0 18,2 28,6 24,11 48,24 74,39 26,16 52,33 78,50 26,17 52,35 78,52 25,17 50,33 74,47 24,13 47,25 68,34 21,8 40,13 58,13 16,0 30,-4 41,-12 12,-7 18,-22 18,-43 0,-9 -3,-18 -9,-26 -6,-8 -13,-16 -22,-22 -9,-6 -19,-11 -31,-14 -11,-4 -22,-6 -33,-6 -12,0 -23,3 -33,7 -1,1 -4,2 -7,4 -3,2 -7,5 -10,7 -4,2 -8,4 -11,6 -4,2 -6,3 -8,3 -3,0 -4,-3 -4,-10 -1,-6 -1,-12 -1,-17 0,-6 2,-14 5,-24 4,-10 10,-19 17,-28 8,-8 18,-16 30,-22 12,-7 26,-10 42,-10 17,0 32,4 46,11 14,6 26,16 37,28 10,11 18,25 23,41 6,16 8,32 8,49 z m -231,-628 -21,59 c -2,6 -4,11 -6,15 -1,3 -6,5 -14,5 h -22 c 9,12 17,22 24,32 8,10 15,19 23,30 7,10 15,21 23,34 7,12 16,27 24,44 6,11 12,24 19,40 7,15 14,31 22,47 7,17 14,33 21,49 8,16 15,31 21,44 l -22,-221 c -2,-19 -5,-35 -8,-48 -2,-12 -6,-23 -9,-30 -3,-8 -7,-13 -11,-16 -3,-3 -8,-5 -12,-5 h -5 l 35,-79 h 94 c -2,9 -4,20 -7,32 -4,12 -7,24 -10,37 -3,12 -5,24 -8,35 -2,11 -3,20 -3,27 v 326 c 0,3 -1,7 -4,12 -2,4 -6,6 -10,6 -4,0 -8,-2 -13,-7 -4,-4 -8,-8 -10,-11 -20,-25 -38,-50 -55,-76 -18,-27 -35,-54 -54,-81 -18,-28 -37,-57 -57,-87 -21,-29 -43,-60 -68,-91 -4,1 -8,5 -13,10 -5,6 -10,13 -15,20 -5,6 -10,13 -14,20 -4,7 -5,12 -5,15 2,-1 5,-2 8,-2 3,-1 6,-1 9,-1 9,0 17,4 25,11 7,7 14,16 19,27 5,11 10,23 13,36 3,13 4,25 4,37 0,11 -3,24 -10,38 -6,15 -15,29 -27,42 -12,13 -25,25 -40,34 -15,9 -31,14 -48,14 -14,0 -29,-3 -46,-8 -16,-6 -31,-15 -45,-28 -14,-14 -26,-31 -35,-53 -10,-22 -14,-50 -14,-83 0,-30 3,-59 10,-89 7,-30 14,-57 20,-83 h -10 c -9,0 -16,-1 -19,-2 -2,-2 -4,-6 -4,-13 0,-2 2,-6 4,-12 2,-6 5,-13 9,-19 3,-7 6,-13 10,-20 3,-6 5,-11 7,-13 h 116 l -23,59 c -1,4 -2,6 -2,9 -1,3 -2,4 -4,6 -2,2 -4,3 -8,4 -3,1 -8,1 -14,1 -4,6 -9,14 -14,24 -5,10 -10,21 -14,33 -4,12 -8,24 -11,37 -2,13 -4,25 -4,37 0,15 2,31 4,47 3,17 8,33 16,47 7,14 18,26 32,36 13,9 32,14 54,14 41,0 61,-17 61,-52 0,-5 0,-10 -2,-16 -2,-6 -4,-11 -8,-16 -3,-5 -7,-9 -13,-12 -5,-4 -12,-5 -19,-5 -15,0 -27,1 -34,5 -7,3 -11,5 -14,5 -2,0 -4,-2 -5,-4 0,-3 -1,-5 -1,-6 0,-5 4,-16 11,-32 7,-17 15,-35 24,-54 10,-20 20,-38 30,-54 10,-17 19,-28 26,-34 h -22 c -10,0 -16,-1 -19,-2 -3,-2 -4,-6 -4,-13 0,-2 1,-6 4,-12 3,-6 6,-13 9,-19 3,-7 7,-13 10,-20 3,-6 6,-11 8,-13 z m 297,121 c -5,0 -8,-1 -10,-4 -2,-3 -5,-8 -8,-15 -4,-6 -8,-13 -12,-21 -4,-7 -8,-14 -11,-21 -4,-7 -7,-14 -10,-20 -2,-6 -4,-10 -4,-14 0,-6 3,-12 7,-18 5,-5 12,-8 22,-8 h 51 c 10,0 18,3 22,8 5,6 7,12 7,18 0,4 -1,8 -4,14 -3,6 -6,13 -9,20 -4,7 -8,14 -12,21 -4,8 -8,15 -11,21 -3,7 -6,12 -8,15 -3,3 -6,4 -10,4 z m 464,-121 -21,59 c -2,6 -4,11 -6,15 -2,3 -7,5 -15,5 h -21 c 9,12 17,22 24,32 8,10 15,19 22,30 8,10 15,21 23,34 8,12 16,27 25,44 6,11 12,24 19,40 6,15 14,31 21,47 7,17 15,33 22,49 7,16 14,31 21,44 l -23,-221 c -2,-19 -4,-35 -7,-48 -3,-12 -6,-23 -9,-30 -3,-8 -7,-13 -11,-16 -4,-3 -8,-5 -12,-5 h -5 l 34,-79 h 95 c -2,9 -4,20 -8,32 -3,12 -6,24 -9,37 -3,12 -6,24 -8,35 -2,11 -3,20 -3,27 v 326 c 0,3 -2,7 -4,12 -3,4 -6,6 -11,6 -3,0 -8,-2 -12,-7 -4,-4 -8,-8 -11,-11 -19,-25 -37,-50 -55,-76 -17,-27 -35,-54 -53,-81 -18,-28 -37,-57 -58,-87 -20,-29 -43,-60 -68,-91 -3,1 -7,5 -12,10 -6,6 -11,13 -16,20 -5,6 -9,13 -13,20 -4,7 -6,12 -6,15 3,-1 6,-2 9,-2 3,-1 6,-1 9,-1 8,0 17,4 24,11 8,7 15,16 20,27 5,11 9,23 12,36 3,13 5,25 5,37 0,11 -4,24 -10,38 -7,15 -16,29 -27,42 -12,13 -25,25 -40,34 -16,9 -32,14 -49,14 -14,0 -29,-3 -45,-8 -16,-6 -31,-15 -45,-28 -14,-14 -26,-31 -36,-53 -9,-22 -14,-50 -14,-83 0,-30 4,-59 11,-89 7,-30 13,-57 19,-83 h -9 c -10,0 -16,-1 -19,-2 -3,-2 -4,-6 -4,-13 0,-2 1,-6 4,-12 2,-6 5,-13 8,-19 4,-7 7,-13 10,-20 4,-6 6,-11 8,-13 h 115 l -22,59 c -1,4 -2,6 -3,9 -1,3 -2,4 -4,6 -1,2 -4,3 -7,4 -3,1 -8,1 -14,1 -4,6 -9,14 -15,24 -5,10 -9,21 -14,33 -4,12 -7,24 -10,37 -3,13 -4,25 -4,37 0,15 1,31 4,47 3,17 8,33 15,47 8,14 18,26 32,36 14,9 32,14 55,14 41,0 61,-17 61,-52 0,-5 -1,-10 -3,-16 -1,-6 -4,-11 -7,-16 -3,-5 -8,-9 -13,-12 -6,-4 -12,-5 -19,-5 -16,0 -27,1 -34,5 -7,3 -12,5 -14,5 -3,0 -5,-2 -5,-4 -1,-3 -1,-5 -1,-6 0,-5 3,-16 10,-32 7,-17 15,-35 25,-54 9,-20 19,-38 30,-54 10,-17 19,-28 26,-34 h -22 c -10,0 -17,-1 -19,-2 -3,-2 -4,-6 -4,-13 0,-2 1,-6 4,-12 2,-6 6,-13 9,-19 3,-7 6,-13 10,-20 3,-6 5,-11 7,-13 z m 137,-41 c 0,7 -3,11 -9,11 -6,0 -15,-4 -27,-11 -12,-8 -26,-17 -43,-28 -17,-12 -35,-24 -55,-37 -20,-14 -41,-27 -63,-40 -16,-10 -35,-20 -56,-30 -21,-10 -41,-19 -62,-28 -21,-8 -41,-15 -59,-20 -19,-5 -35,-8 -47,-8 -6,0 -10,0 -14,0 -3,0 -8,1 -16,2 0,-7 2,-16 6,-25 4,-9 9,-18 15,-26 6,-9 12,-16 18,-21 6,-6 12,-9 16,-9 22,0 45,4 69,12 24,8 47,18 71,31 24,13 47,28 70,45 23,17 44,34 65,52 21,18 40,36 57,53 18,18 33,34 45,49 l 15,17 c 3,3 4,7 4,11 z m 159,162 c -4,0 -7,-1 -10,-4 -2,-3 -5,-8 -8,-15 -3,-6 -7,-13 -11,-21 -4,-7 -8,-14 -12,-21 -3,-7 -6,-14 -9,-20 -3,-6 -4,-10 -4,-14 0,-6 2,-12 7,-18 4,-5 12,-8 22,-8 h 51 c 10,0 17,3 22,8 5,6 7,12 7,18 0,4 -1,8 -4,14 -3,6 -6,13 -10,20 -3,7 -7,14 -11,21 -4,8 -8,15 -11,21 -4,7 -7,12 -9,15 -2,3 -5,4 -10,4 z m 464,-121 -21,59 c -2,6 -4,11 -5,15 -2,3 -7,5 -15,5 h -22 c 9,12 17,22 25,32 7,10 15,19 22,30 7,10 15,21 23,34 7,12 16,27 24,44 6,11 12,24 19,40 7,15 14,31 22,47 7,17 14,33 22,49 7,16 14,31 20,44 l -22,-221 c -2,-19 -5,-35 -8,-48 -2,-12 -5,-23 -9,-30 -3,-8 -7,-13 -10,-16 -4,-3 -8,-5 -13,-5 h -5 l 35,-79 h 94 c -1,9 -4,20 -7,32 -3,12 -7,24 -10,37 -3,12 -5,24 -8,35 -2,11 -3,20 -3,27 v 326 c 0,3 -1,7 -4,12 -2,4 -6,6 -10,6 -4,0 -8,-2 -12,-7 -5,-4 -8,-8 -11,-11 -19,-25 -38,-50 -55,-76 -17,-27 -35,-54 -53,-81 -19,-28 -38,-57 -58,-87 -21,-29 -43,-60 -68,-91 -3,1 -8,5 -13,10 -5,6 -10,13 -15,20 -5,6 -10,13 -13,20 -4,7 -6,12 -6,15 3,-1 5,-2 8,-2 4,-1 6,-1 9,-1 9,0 17,4 25,11 8,7 14,16 19,27 6,11 10,23 13,36 3,13 4,25 4,37 0,11 -3,24 -10,38 -6,15 -15,29 -27,42 -11,13 -25,25 -40,34 -15,9 -31,14 -48,14 -14,0 -29,-3 -45,-8 -17,-6 -32,-15 -46,-28 -14,-14 -26,-31 -35,-53 -9,-22 -14,-50 -14,-83 0,-30 3,-59 10,-89 7,-30 14,-57 20,-83 h -9 c -10,0 -17,-1 -19,-2 -3,-2 -5,-6 -5,-13 0,-2 2,-6 4,-12 3,-6 6,-13 9,-19 3,-7 7,-13 10,-20 3,-6 6,-11 7,-13 h 116 l -22,59 c -1,4 -2,6 -3,9 -1,3 -2,4 -4,6 -2,2 -4,3 -7,4 -4,1 -8,1 -14,1 -5,6 -10,14 -15,24 -5,10 -10,21 -14,33 -4,12 -8,24 -10,37 -3,13 -4,25 -4,37 0,15 1,31 4,47 2,17 8,33 15,47 7,14 18,26 32,36 14,9 32,14 54,14 41,0 62,-17 62,-52 0,-5 -1,-10 -3,-16 -2,-6 -4,-11 -7,-16 -4,-5 -8,-9 -14,-12 -5,-4 -11,-5 -19,-5 -15,0 -26,1 -33,5 -8,3 -12,5 -15,5 -2,0 -4,-2 -4,-4 -1,-3 -1,-5 -1,-6 0,-5 3,-16 10,-32 7,-17 15,-35 24,-54 10,-20 20,-38 30,-54 11,-17 19,-28 27,-34 h -23 c -10,0 -16,-1 -19,-2 -2,-2 -4,-6 -4,-13 0,-2 2,-6 4,-12 3,-6 6,-13 9,-19 4,-7 7,-13 10,-20 4,-6 6,-11 8,-13 z m -365,-168 c -6,0 -11,0 -14,0 -3,0 -9,0 -16,2 0,-8 1,-16 5,-25 4,-10 9,-18 14,-27 6,-8 12,-15 18,-21 6,-6 11,-8 16,-8 18,0 39,4 64,14 24,9 48,22 72,38 24,16 45,35 64,56 20,22 33,44 41,68 l 2,-7 c 5,-22 11,-42 17,-63 6,-20 16,-38 29,-54 12,-16 30,-28 53,-38 23,-10 54,-14 92,-14 19,0 35,-1 49,-1 14,-1 27,-3 38,-5 12,-3 24,-7 35,-13 12,-7 26,-15 40,-26 8,0 11,2 11,5 0,11 -6,23 -20,37 -14,14 -30,27 -50,39 -20,12 -41,22 -63,30 -23,8 -43,12 -61,12 -21,0 -40,4 -58,12 -18,7 -34,17 -47,29 -13,13 -24,26 -31,41 -8,15 -12,29 -12,43 0,4 -3,8 -8,11 -5,2 -9,4 -12,4 -5,0 -11,-6 -17,-18 -9,-19 -23,-35 -42,-50 -20,-14 -41,-27 -65,-38 -24,-10 -48,-19 -73,-24 -26,-6 -49,-9 -71,-9 z m 717,168 c 7,0 13,1 17,3 4,2 7,6 7,12 0,11 -2,21 -5,32 -3,10 -6,20 -9,31 -3,11 -6,22 -9,33 -4,11 -6,22 -6,33 v 753 c 0,3 -1,6 -4,10 -2,4 -8,6 -15,6 -4,0 -8,-2 -11,-6 -3,-4 -4,-7 -4,-10 l -40,-747 c 0,-3 -1,-8 -3,-13 -1,-6 -3,-12 -5,-18 -3,-6 -5,-11 -9,-16 -3,-6 -6,-10 -9,-13 v -34 l 23,-56 z"
     class="fil0" /></g><rect
   class="fil1"
   width="9870"
   height="4533"
   id="rect13"
   x="0"
   y="0"
   style="fill:none" />
</svg>